<svg id="kity_svg_6" xmlns="http://www.w3.org/2000/svg" xmlns:xlink="http://www.w3.org/1999/xlink" version="1.1" width="534" height="662" style="background: rgb(251, 251, 251); visibility: visible;" viewBox="0 0 534 662"><defs id="kity_defs_7"><linearGradient id="kity_linearGradient_17" x1="0" y1="0" x2="0" y2="1"><stop id="kity_stop_18" offset="0" stop-color="rgb(255, 255, 255)"></stop><stop id="kity_stop_19" offset="1" stop-color="rgb(204, 204, 204)"></stop></linearGradient><marker id="kity_marker_2" orient="auto" refX="6" refY="0" viewBox="-7 -7 14 14" markerWidth="7" markerHeight="7" markerUnits="userSpaceOnUse"><path id="kity_path_3" fill="rgb(115, 161, 191)" stroke="none" d="M6,0A6,6,0,1,1,-6,0A6,6,0,1,1,6,0"></path></marker></defs><g id="kity_g_8"><g id="minder1" text-rendering="optimize-speed"><g id="minder_connect_group1"><path id="kity_path_31" fill="none" stroke="rgb(115, 161, 191)" stroke-width="1" d="M102.00000538676977,352.00000477582216A97.5,275,0,0,1,199.50000538676977,77.00000477582216"></path><path id="kity_path_33" fill="none" stroke="rgb(115, 161, 191)" stroke-width="1" d="M291.50000538676977,77.50000477582216C299.50000538676977,77.00000477582216,299.50000538676977,31.000004775822163,307.50000538676977,31.000004775822163"></path><path id="kity_path_35" fill="none" stroke="rgb(115, 161, 191)" stroke-width="1" d="M291.50000538676977,77.50000477582216C299.50000538676977,77.00000477582216,299.50000538676977,62.00000477582216,307.50000538676977,62.00000477582216"></path><path id="kity_path_37" fill="none" stroke="rgb(115, 161, 191)" stroke-width="1" d="M291.50000538676977,77.50000477582216C299.50000538676977,77.00000477582216,299.50000538676977,93.00000477582216,307.50000538676977,93.00000477582216"></path><path id="kity_path_39" fill="none" stroke="rgb(115, 161, 191)" stroke-width="1" d="M291.50000538676977,77.50000477582216C299.50000538676977,77.00000477582216,299.50000538676977,124.00000477582216,307.50000538676977,124.00000477582216"></path><path id="kity_path_41" fill="none" stroke="rgb(115, 161, 191)" stroke-width="1" d="M102.00000538676977,352.00000477582216A97.5,186,0,0,1,199.50000538676977,166.00000477582216"></path><path id="kity_path_43" fill="none" stroke="rgb(115, 161, 191)" stroke-width="1" d="M102.00000538676977,352.00000477582216A97.5,90,0,0,1,199.50000538676977,262.00000477582216"></path><path id="kity_path_45" fill="none" stroke="rgb(115, 161, 191)" stroke-width="1" d="M292.50000538676977,262.50000477582216C300.50000538676977,262.00000477582216,300.50000538676977,208.00000477582216,308.50000538676977,208.00000477582216"></path><path id="kity_path_47" fill="none" stroke="rgb(115, 161, 191)" stroke-width="1" d="M292.50000538676977,262.50000477582216C300.50000538676977,262.00000477582216,300.50000538676977,316.00000477582216,308.50000538676977,316.00000477582216"></path><path id="kity_path_49" fill="none" stroke="rgb(115, 161, 191)" stroke-width="1" d="M389.50000538676977,316.50000477582216C397.50000538676977,316.00000477582216,397.50000538676977,239.00000477582216,405.50000538676977,239.00000477582216"></path><path id="kity_path_51" fill="none" stroke="rgb(115, 161, 191)" stroke-width="1" d="M389.50000538676977,316.50000477582216C397.50000538676977,316.00000477582216,397.50000538676977,270.00000477582216,405.50000538676977,270.00000477582216"></path><path id="kity_path_53" fill="none" stroke="rgb(115, 161, 191)" stroke-width="1" d="M389.50000538676977,316.50000477582216C397.50000538676977,316.00000477582216,397.50000538676977,301.00000477582216,405.50000538676977,301.00000477582216"></path><path id="kity_path_55" fill="none" stroke="rgb(115, 161, 191)" stroke-width="1" d="M389.50000538676977,316.50000477582216C397.50000538676977,316.00000477582216,397.50000538676977,332.00000477582216,405.50000538676977,332.00000477582216"></path><path id="kity_path_57" fill="none" stroke="rgb(115, 161, 191)" stroke-width="1" d="M389.50000538676977,316.50000477582216C397.50000538676977,316.00000477582216,397.50000538676977,363.00000477582216,405.50000538676977,363.00000477582216"></path><path id="kity_path_59" fill="none" stroke="rgb(115, 161, 191)" stroke-width="1" d="M389.50000538676977,316.50000477582216C397.50000538676977,316.00000477582216,397.50000538676977,394.00000477582216,405.50000538676977,394.00000477582216"></path><path id="kity_path_61" fill="none" stroke="rgb(115, 161, 191)" stroke-width="1" d="M102.00000538676977,352.00000477582216A97.5,112,0,0,0,199.50000538676977,464.00000477582216"></path><path id="kity_path_63" fill="none" stroke="rgb(115, 161, 191)" stroke-width="1" d="M291.50000538676977,464.50000477582216C299.50000538676977,464.00000477582216,299.50000538676977,433.00000477582216,307.50000538676977,433.00000477582216"></path><path id="kity_path_65" fill="none" stroke="rgb(115, 161, 191)" stroke-width="1" d="M364.50000538676977,433.50000477582216C372.50000538676977,433.00000477582216,372.50000538676977,433.00000477582216,380.50000538676977,433.00000477582216"></path><path id="kity_path_67" fill="none" stroke="rgb(115, 161, 191)" stroke-width="1" d="M291.50000538676977,464.50000477582216C299.50000538676977,464.00000477582216,299.50000538676977,464.00000477582216,307.50000538676977,464.00000477582216"></path><path id="kity_path_69" fill="none" stroke="rgb(115, 161, 191)" stroke-width="1" d="M291.50000538676977,464.50000477582216C299.50000538676977,464.00000477582216,299.50000538676977,495.00000477582216,307.50000538676977,495.00000477582216"></path><path id="kity_path_71" fill="none" stroke="rgb(115, 161, 191)" stroke-width="1" d="M102.00000538676977,352.00000477582216A97.5,185,0,0,0,199.50000538676977,537.0000047758222"></path><path id="kity_path_73" fill="none" stroke="rgb(115, 161, 191)" stroke-width="1" d="M306.50000538676977,537.5000047758222C314.50000538676977,537.0000047758222,314.50000538676977,537.0000047758222,322.50000538676977,537.0000047758222"></path><path id="kity_path_75" fill="none" stroke="rgb(115, 161, 191)" stroke-width="1" d="M102.00000538676977,352.00000477582216A97.5,230,0,0,0,199.50000538676977,582.0000047758222"></path><path id="kity_path_77" fill="none" stroke="rgb(115, 161, 191)" stroke-width="1" d="M102.00000538676977,352.00000477582216A97.5,275,0,0,0,199.50000538676977,627.0000047758222"></path></g><g id="minder_node1"><path id="node_outline1" fill="rgb(115, 161, 191)" stroke="rgb(115, 161, 191)" d="M25.50000538676977,337.50000477582216h153a5,5,0,0,1,5,5v19a5,5,0,0,1,-5,5h-153a5,5,0,0,1,-5,-5v-19a5,5,0,0,1,5,-5z" stroke-width="3"></path><g id="node_text1" fill="white"><text id="kity_text_22" text-rendering="inherit" font-size="16" dy=".8em" y="341.1000047400594" x="32.50000538676977">JVM类加载机制</text></g><g id="kity_g_198" style="cursor: pointer;"><path id="kity_path_199" fill="none" stroke="none" d="M158.0000072196126,343.00000477582216h12a2,2,0,0,1,2,2v13a2,2,0,0,1,-2,2h-12a2,2,0,0,1,-2,-2v-13a2,2,0,0,1,2,-2z"></path><path id="kity_path_200" fill="white" stroke="none" d="M167.0000072568655,354.0000046789646H161.0000072568655V353.0000046789646h6L167.0000072568655,354.0000046789646L167.0000072568655,354.0000046789646zM167.0000072568655,352.0000046789646H161.0000072568655V351.0000046789646h6V352.0000046789646zM167.0000072568655,350.0000046789646H161.0000072568655V349.0000046789646h6V350.0000046789646zM166.5000072568655,356.0000046789646H160.0000072568655V347.0000046789646h8v7.5M167.0000072568655,357.0000046789646l2,-2V346.0000046789646H159.0000072568655v11"></path></g></g><g id="kity_g_12"><path id="kity_path_13" fill="none" stroke="none" d="M32.50000538676977,351.50000477582216h0v0h0z"></path></g><g id="kity_g_14"><path id="kity_path_15" fill="none" stroke="none" d="M32.50000538676977,351.50000477582216h0v0h0z"></path><path id="kity_path_16" fill="none" stroke="none"></path></g><g id="minder_node2"><g id="node_expander5" style="cursor: pointer;"><path id="kity_path_238" fill="white" stroke="gray" d="M200.50000780075788,77.00000068545341A6,6,0,1,1,188.50000780075788,77.00000068545341A6,6,0,1,1,200.50000780075788,77.00000068545341"></path><path id="kity_path_239" fill="none" stroke="gray" d="M190.00000780075788,77.00000068545341L199.00000780075788,77.00000068545341"></path></g><path id="node_outline6" fill="rgb(238, 243, 246)" stroke="rgb(115, 161, 191)" d="M204.50000820308924,62.500000678002834h84a3,3,0,0,1,3,3v23a3,3,0,0,1,-3,3h-84a3,3,0,0,1,-3,-3v-23a3,3,0,0,1,3,-3z" stroke-width="1"></path><g id="node_text6" fill="black"><text id="kity_text_87" text-rendering="inherit" font-size="14" dy=".8em" y="67.4000006467104" x="221.50000820308924">基础</text></g><g id="kity_g_138" style="cursor: pointer;"><path id="kity_path_139" fill="none" stroke="none" d="M258.0000087097287,68.00000067800283h12a2,2,0,0,1,2,2v13a2,2,0,0,1,-2,2h-12a2,2,0,0,1,-2,-2v-13a2,2,0,0,1,2,-2z"></path><path id="kity_path_140" fill="black" stroke="none" d="M267.0000087469816,79.00000058114529H261.0000087469816V78.00000058114529h6L267.0000087469816,79.00000058114529L267.0000087469816,79.00000058114529zM267.0000087469816,77.00000058114529H261.0000087469816V76.00000058114529h6V77.00000058114529zM267.0000087469816,75.00000058114529H261.0000087469816V74.00000058114529h6V75.00000058114529zM266.5000087469816,81.00000058114529H260.0000087469816V72.00000058114529h8v7.5M267.0000087469816,82.00000058114529l2,-2V71.00000058114529H259.0000087469816v11"></path></g></g><g id="minder_node3"><g id="node_expander1" style="cursor: pointer;" display="none"><path id="kity_path_226" fill="white" stroke="gray" d="M307.50000939518213,31A6,6,0,1,1,295.50000939518213,31A6,6,0,1,1,307.50000939518213,31"></path><path id="kity_path_227" fill="none" stroke="gray"></path></g><path id="node_outline2" fill="none" stroke="none" d="M312.5000095590949,19.49999999254942h71a5,5,0,0,1,5,5v13a5,5,0,0,1,-5,5h-71a5,5,0,0,1,-5,-5v-13a5,5,0,0,1,5,-5z"></path><g id="node_text2" fill="black"><text id="kity_text_79" text-rendering="inherit" font-size="12" dy=".8em" y="22.69999996572733" x="312.5000095590949">基本类型</text></g><g id="kity_g_126" style="cursor: pointer;"><path id="kity_path_127" fill="none" stroke="none" d="M370.00001037865877,21.99999999254942h12a2,2,0,0,1,2,2v13a2,2,0,0,1,-2,2h-12a2,2,0,0,1,-2,-2v-13a2,2,0,0,1,2,-2z"></path><path id="kity_path_128" fill="black" stroke="none" d="M379.0000104159117,32.99999989569187H373.0000104159117V31.99999989569187h6L379.0000104159117,32.99999989569187L379.0000104159117,32.99999989569187zM379.0000104159117,30.99999989569187H373.0000104159117V29.99999989569187h6V30.99999989569187zM379.0000104159117,28.99999989569187H373.0000104159117V27.99999989569187h6V28.99999989569187zM378.5000104159117,34.99999989569187H372.0000104159117V25.99999989569187h8v7.5M379.0000104159117,35.99999989569187l2,-2V24.99999989569187H371.0000104159117v11"></path></g></g><g id="minder_node4"><g id="node_expander2" style="cursor: pointer;" display="none"><path id="kity_path_229" fill="white" stroke="gray" d="M307.50000939518213,62.000000461936A6,6,0,1,1,295.50000939518213,62.000000461936A6,6,0,1,1,307.50000939518213,62.000000461936"></path><path id="kity_path_230" fill="none" stroke="gray"></path></g><path id="node_outline3" fill="none" stroke="none" d="M312.5000095590949,50.500000454485416h70a5,5,0,0,1,5,5v13a5,5,0,0,1,-5,5h-70a5,5,0,0,1,-5,-5v-13a5,5,0,0,1,5,-5z"></path><g id="node_text3" fill="black"><text id="kity_text_81" text-rendering="inherit" font-size="12" dy=".8em" y="53.700000427663326" x="312.5000095590949">引用类型</text></g><g id="kity_g_129" style="cursor: pointer;"><path id="kity_path_130" fill="none" stroke="none" d="M369.0000103637576,53.000000454485416h12a2,2,0,0,1,2,2v13a2,2,0,0,1,-2,2h-12a2,2,0,0,1,-2,-2v-13a2,2,0,0,1,2,-2z"></path><path id="kity_path_131" fill="black" stroke="none" d="M378.0000104010105,64.00000035762787H372.0000104010105V63.00000035762787h6L378.0000104010105,64.00000035762787L378.0000104010105,64.00000035762787zM378.0000104010105,62.00000035762787H372.0000104010105V61.00000035762787h6V62.00000035762787zM378.0000104010105,60.00000035762787H372.0000104010105V59.00000035762787h6V60.00000035762787zM377.5000104010105,66.00000035762787H371.0000104010105V57.00000035762787h8v7.5M378.0000104010105,67.00000035762787l2,-2V56.00000035762787H370.0000104010105v11"></path></g></g><g id="minder_node5"><g id="node_expander3" style="cursor: pointer;" display="none"><path id="kity_path_232" fill="white" stroke="gray" d="M307.50000939518213,93.000000923872A6,6,0,1,1,295.50000939518213,93.000000923872A6,6,0,1,1,307.50000939518213,93.000000923872"></path><path id="kity_path_233" fill="none" stroke="gray"></path></g><path id="node_outline4" fill="none" stroke="none" d="M312.5000095590949,81.50000091642141h58a5,5,0,0,1,5,5v13a5,5,0,0,1,-5,5h-58a5,5,0,0,1,-5,-5v-13a5,5,0,0,1,5,-5z"></path><g id="node_text4" fill="black"><text id="kity_text_83" text-rendering="inherit" font-size="12" dy=".8em" y="84.70000088959932" x="312.5000095590949">字节流</text></g><g id="kity_g_132" style="cursor: pointer;"><path id="kity_path_133" fill="none" stroke="none" d="M357.0000101849437,84.00000091642141h12a2,2,0,0,1,2,2v13a2,2,0,0,1,-2,2h-12a2,2,0,0,1,-2,-2v-13a2,2,0,0,1,2,-2z"></path><path id="kity_path_134" fill="black" stroke="none" d="M366.0000102221966,95.00000081956387H360.0000102221966V94.00000081956387h6L366.0000102221966,95.00000081956387L366.0000102221966,95.00000081956387zM366.0000102221966,93.00000081956387H360.0000102221966V92.00000081956387h6V93.00000081956387zM366.0000102221966,91.00000081956387H360.0000102221966V90.00000081956387h6V91.00000081956387zM365.5000102221966,97.00000081956387H359.0000102221966V88.00000081956387h8v7.5M366.0000102221966,98.00000081956387l2,-2V87.00000081956387H358.0000102221966v11"></path></g></g><g id="minder_node6"><g id="node_expander4" style="cursor: pointer;" display="none"><path id="kity_path_235" fill="white" stroke="gray" d="M307.50000939518213,124.00000138580799A6,6,0,1,1,295.50000939518213,124.00000138580799A6,6,0,1,1,307.50000939518213,124.00000138580799"></path><path id="kity_path_236" fill="none" stroke="gray"></path></g><path id="node_outline5" fill="none" stroke="none" d="M312.5000095590949,112.50000137835741h35a5,5,0,0,1,5,5v13a5,5,0,0,1,-5,5h-35a5,5,0,0,1,-5,-5v-13a5,5,0,0,1,5,-5z"></path><g id="node_text5" fill="black"><text id="kity_text_85" text-rendering="inherit" font-size="12" dy=".8em" y="115.70000135153532" x="312.5000095590949">类</text></g><g id="kity_g_135" style="cursor: pointer;"><path id="kity_path_136" fill="none" stroke="none" d="M334.00000984221697,115.00000137835741h12a2,2,0,0,1,2,2v13a2,2,0,0,1,-2,2h-12a2,2,0,0,1,-2,-2v-13a2,2,0,0,1,2,-2z"></path><path id="kity_path_137" fill="black" stroke="none" d="M343.00000987946987,126.00000128149986H337.00000987946987V125.00000128149986h6L343.00000987946987,126.00000128149986L343.00000987946987,126.00000128149986zM343.00000987946987,124.00000128149986H337.00000987946987V123.00000128149986h6V124.00000128149986zM343.00000987946987,122.00000128149986H337.00000987946987V121.00000128149986h6V122.00000128149986zM342.50000987946987,128.00000128149986H336.00000987946987V119.00000128149986h8v7.5M343.00000987946987,129.00000128149986l2,-2V118.00000128149986H335.00000987946987v11"></path></g></g><g id="minder_node7"><g id="node_expander6" style="cursor: pointer;" display="none"><path id="kity_path_241" fill="white" stroke="gray" d="M200.50000780075788,166.00000201165676A6,6,0,1,1,188.50000780075788,166.00000201165676A6,6,0,1,1,200.50000780075788,166.00000201165676"></path><path id="kity_path_242" fill="none" stroke="gray"></path></g><path id="node_outline7" fill="rgb(238, 243, 246)" stroke="rgb(115, 161, 191)" d="M204.50000820308924,151.50000200420618h141a3,3,0,0,1,3,3v23a3,3,0,0,1,-3,3h-141a3,3,0,0,1,-3,-3v-23a3,3,0,0,1,3,-3z" stroke-width="1"></path><g id="node_text7" fill="black"><text id="kity_text_89" text-rendering="inherit" font-size="14" dy=".8em" y="156.40000197291374" x="221.50000820308924">类加载的阶段</text></g><g id="kity_g_141" style="cursor: pointer;"><path id="kity_path_142" fill="none" stroke="none" d="M315.0000095590949,157.00000200420618h12a2,2,0,0,1,2,2v13a2,2,0,0,1,-2,2h-12a2,2,0,0,1,-2,-2v-13a2,2,0,0,1,2,-2z"></path><path id="kity_path_143" fill="black" stroke="none" d="M324.0000095963478,168.00000190734863H318.0000095963478V167.00000190734863h6L324.0000095963478,168.00000190734863L324.0000095963478,168.00000190734863zM324.0000095963478,166.00000190734863H318.0000095963478V165.00000190734863h6V166.00000190734863zM324.0000095963478,164.00000190734863H318.0000095963478V163.00000190734863h6V164.00000190734863zM323.5000095963478,170.00000190734863H317.0000095963478V161.00000190734863h8v7.5M324.0000095963478,171.00000190734863l2,-2V160.00000190734863H316.0000095963478v11"></path></g></g><g id="minder_node8"><g id="node_expander15" style="cursor: pointer;"><path id="kity_path_268" fill="white" stroke="gray" d="M200.50000780075788,262.00000344216824A6,6,0,1,1,188.50000780075788,262.00000344216824A6,6,0,1,1,200.50000780075788,262.00000344216824"></path><path id="kity_path_269" fill="none" stroke="gray" d="M190.00000780075788,262.00000344216824L199.00000780075788,262.00000344216824"></path></g><path id="node_outline16" fill="rgb(238, 243, 246)" stroke="rgb(115, 161, 191)" d="M204.50000820308924,247.50000343471766h85a3,3,0,0,1,3,3v23a3,3,0,0,1,-3,3h-85a3,3,0,0,1,-3,-3v-23a3,3,0,0,1,3,-3z" stroke-width="1"></path><g id="node_text16" fill="black"><text id="kity_text_107" text-rendering="inherit" font-size="14" dy=".8em" y="252.40000340342522" x="221.50000820308924">加载</text></g><g id="kity_g_168" style="cursor: pointer;"><path id="kity_path_169" fill="none" stroke="none" d="M259.0000087246299,253.00000343471766h12a2,2,0,0,1,2,2v13a2,2,0,0,1,-2,2h-12a2,2,0,0,1,-2,-2v-13a2,2,0,0,1,2,-2z"></path><path id="kity_path_170" fill="black" stroke="none" d="M268.0000087618828,264.0000033378601H262.0000087618828V263.0000033378601h6L268.0000087618828,264.0000033378601L268.0000087618828,264.0000033378601zM268.0000087618828,262.0000033378601H262.0000087618828V261.0000033378601h6V262.0000033378601zM268.0000087618828,260.0000033378601H262.0000087618828V259.0000033378601h6V260.0000033378601zM267.5000087618828,266.0000033378601H261.0000087618828V257.0000033378601h8v7.5M268.0000087618828,267.0000033378601l2,-2V256.0000033378601H260.0000087618828v11"></path></g></g><g id="minder_node9"><g id="node_expander7" style="cursor: pointer;" display="none"><path id="kity_path_244" fill="white" stroke="gray" d="M308.5000094100833,208.00000263750553A6,6,0,1,1,296.5000094100833,208.00000263750553A6,6,0,1,1,308.5000094100833,208.00000263750553"></path><path id="kity_path_245" fill="none" stroke="gray"></path></g><path id="node_outline8" fill="none" stroke="none" d="M313.50000957399607,196.50000263005495h71a5,5,0,0,1,5,5v13a5,5,0,0,1,-5,5h-71a5,5,0,0,1,-5,-5v-13a5,5,0,0,1,5,-5z"></path><g id="node_text8" fill="black"><text id="kity_text_91" text-rendering="inherit" font-size="12" dy=".8em" y="199.70000260323286" x="313.50000957399607">加载时机</text></g><g id="kity_g_144" style="cursor: pointer;"><path id="kity_path_145" fill="none" stroke="none" d="M371.00001039355993,199.00000263005495h12a2,2,0,0,1,2,2v13a2,2,0,0,1,-2,2h-12a2,2,0,0,1,-2,-2v-13a2,2,0,0,1,2,-2z"></path><path id="kity_path_146" fill="black" stroke="none" d="M380.00001043081284,210.0000025331974H374.00001043081284V209.0000025331974h6L380.00001043081284,210.0000025331974L380.00001043081284,210.0000025331974zM380.00001043081284,208.0000025331974H374.00001043081284V207.0000025331974h6V208.0000025331974zM380.00001043081284,206.0000025331974H374.00001043081284V205.0000025331974h6V206.0000025331974zM379.50001043081284,212.0000025331974H373.00001043081284V203.0000025331974h8v7.5M380.00001043081284,213.0000025331974l2,-2V202.0000025331974H372.00001043081284v11"></path></g></g><g id="minder_node10"><g id="node_expander14" style="cursor: pointer;"><path id="kity_path_265" fill="white" stroke="gray" d="M308.5000094100833,316.00000424683094A6,6,0,1,1,296.5000094100833,316.00000424683094A6,6,0,1,1,308.5000094100833,316.00000424683094"></path><path id="kity_path_266" fill="none" stroke="gray" d="M298.0000094100833,316.00000424683094L307.0000094100833,316.00000424683094"></path></g><path id="node_outline15" fill="none" stroke="none" d="M313.50000957399607,304.50000423938036h71a5,5,0,0,1,5,5v13a5,5,0,0,1,-5,5h-71a5,5,0,0,1,-5,-5v-13a5,5,0,0,1,5,-5z"></path><g id="node_text15" fill="black"><text id="kity_text_105" text-rendering="inherit" font-size="12" dy=".8em" y="307.70000421255827" x="313.50000957399607">类加载器</text></g><g id="kity_g_165" style="cursor: pointer;"><path id="kity_path_166" fill="none" stroke="none" d="M371.00001039355993,307.00000423938036h12a2,2,0,0,1,2,2v13a2,2,0,0,1,-2,2h-12a2,2,0,0,1,-2,-2v-13a2,2,0,0,1,2,-2z"></path><path id="kity_path_167" fill="black" stroke="none" d="M380.00001043081284,318.0000041425228H374.00001043081284V317.0000041425228h6L380.00001043081284,318.0000041425228L380.00001043081284,318.0000041425228zM380.00001043081284,316.0000041425228H374.00001043081284V315.0000041425228h6V316.0000041425228zM380.00001043081284,314.0000041425228H374.00001043081284V313.0000041425228h6V314.0000041425228zM379.50001043081284,320.0000041425228H373.00001043081284V311.0000041425228h8v7.5M380.00001043081284,321.0000041425228l2,-2V310.0000041425228H372.00001043081284v11"></path></g></g><g id="minder_node11"><g id="node_expander8" style="cursor: pointer;" display="none"><path id="kity_path_247" fill="white" stroke="gray" d="M405.50001085549593,239.00000309944153A6,6,0,1,1,393.50001085549593,239.00000309944153A6,6,0,1,1,405.50001085549593,239.00000309944153"></path><path id="kity_path_248" fill="none" stroke="gray"></path></g><path id="node_outline9" fill="none" stroke="none" d="M410.5000110194087,227.50000309199095h95a5,5,0,0,1,5,5v13a5,5,0,0,1,-5,5h-95a5,5,0,0,1,-5,-5v-13a5,5,0,0,1,5,-5z"></path><g id="node_text9" fill="black"><text id="kity_text_93" text-rendering="inherit" font-size="12" dy=".8em" y="230.70000306516886" x="410.5000110194087">启动类加载器</text></g><g id="kity_g_147" style="cursor: pointer;"><path id="kity_path_148" fill="none" stroke="none" d="M492.00001219660044,230.00000309199095h12a2,2,0,0,1,2,2v13a2,2,0,0,1,-2,2h-12a2,2,0,0,1,-2,-2v-13a2,2,0,0,1,2,-2z"></path><path id="kity_path_149" fill="black" stroke="none" d="M501.00001223385334,241.0000029951334H495.00001223385334V240.0000029951334h6L501.00001223385334,241.0000029951334L501.00001223385334,241.0000029951334zM501.00001223385334,239.0000029951334H495.00001223385334V238.0000029951334h6V239.0000029951334zM501.00001223385334,237.0000029951334H495.00001223385334V236.0000029951334h6V237.0000029951334zM500.50001223385334,243.0000029951334H494.00001223385334V234.0000029951334h8v7.5M501.00001223385334,244.0000029951334l2,-2V233.0000029951334H493.00001223385334v11"></path></g></g><g id="minder_node12"><g id="node_expander9" style="cursor: pointer;" display="none"><path id="kity_path_250" fill="white" stroke="gray" d="M405.50001085549593,270.0000035613775A6,6,0,1,1,393.50001085549593,270.0000035613775A6,6,0,1,1,405.50001085549593,270.0000035613775"></path><path id="kity_path_251" fill="none" stroke="gray"></path></g><path id="node_outline10" fill="none" stroke="none" d="M410.5000110194087,258.50000355392694h95a5,5,0,0,1,5,5v13a5,5,0,0,1,-5,5h-95a5,5,0,0,1,-5,-5v-13a5,5,0,0,1,5,-5z"></path><g id="node_text10" fill="black"><text id="kity_text_95" text-rendering="inherit" font-size="12" dy=".8em" y="261.70000352710485" x="410.5000110194087">扩展类加载器</text></g><g id="kity_g_150" style="cursor: pointer;"><path id="kity_path_151" fill="none" stroke="none" d="M492.00001219660044,261.00000355392694h12a2,2,0,0,1,2,2v13a2,2,0,0,1,-2,2h-12a2,2,0,0,1,-2,-2v-13a2,2,0,0,1,2,-2z"></path><path id="kity_path_152" fill="black" stroke="none" d="M501.00001223385334,272.0000034570694H495.00001223385334V271.0000034570694h6L501.00001223385334,272.0000034570694L501.00001223385334,272.0000034570694zM501.00001223385334,270.0000034570694H495.00001223385334V269.0000034570694h6V270.0000034570694zM501.00001223385334,268.0000034570694H495.00001223385334V267.0000034570694h6V268.0000034570694zM500.50001223385334,274.0000034570694H494.00001223385334V265.0000034570694h8v7.5M501.00001223385334,275.0000034570694l2,-2V264.0000034570694H493.00001223385334v11"></path></g></g><g id="minder_node13"><g id="node_expander10" style="cursor: pointer;" display="none"><path id="kity_path_253" fill="white" stroke="gray" d="M405.50001085549593,301.0000040233135A6,6,0,1,1,393.50001085549593,301.0000040233135A6,6,0,1,1,405.50001085549593,301.0000040233135"></path><path id="kity_path_254" fill="none" stroke="gray"></path></g><path id="node_outline11" fill="none" stroke="none" d="M410.5000110194087,289.50000401586294h95a5,5,0,0,1,5,5v13a5,5,0,0,1,-5,5h-95a5,5,0,0,1,-5,-5v-13a5,5,0,0,1,5,-5z"></path><g id="node_text11" fill="black"><text id="kity_text_97" text-rendering="inherit" font-size="12" dy=".8em" y="292.70000398904085" x="410.5000110194087">应用类加载器</text></g><g id="kity_g_153" style="cursor: pointer;"><path id="kity_path_154" fill="none" stroke="none" d="M492.00001219660044,292.00000401586294h12a2,2,0,0,1,2,2v13a2,2,0,0,1,-2,2h-12a2,2,0,0,1,-2,-2v-13a2,2,0,0,1,2,-2z"></path><path id="kity_path_155" fill="black" stroke="none" d="M501.00001223385334,303.0000039190054H495.00001223385334V302.0000039190054h6L501.00001223385334,303.0000039190054L501.00001223385334,303.0000039190054zM501.00001223385334,301.0000039190054H495.00001223385334V300.0000039190054h6V301.0000039190054zM501.00001223385334,299.0000039190054H495.00001223385334V298.0000039190054h6V299.0000039190054zM500.50001223385334,305.0000039190054H494.00001223385334V296.0000039190054h8v7.5M501.00001223385334,306.0000039190054l2,-2V295.0000039190054H493.00001223385334v11"></path></g></g><g id="minder_node14"><g id="node_expander11" style="cursor: pointer;" display="none"><path id="kity_path_256" fill="white" stroke="gray" d="M405.50001085549593,332.0000044852495A6,6,0,1,1,393.50001085549593,332.0000044852495A6,6,0,1,1,405.50001085549593,332.0000044852495"></path><path id="kity_path_257" fill="none" stroke="gray"></path></g><path id="node_outline12" fill="none" stroke="none" d="M410.5000110194087,320.50000447779894h94a5,5,0,0,1,5,5v13a5,5,0,0,1,-5,5h-94a5,5,0,0,1,-5,-5v-13a5,5,0,0,1,5,-5z"></path><g id="node_text12" fill="black"><text id="kity_text_99" text-rendering="inherit" font-size="12" dy=".8em" y="323.70000445097685" x="410.5000110194087">自定义加载器</text></g><g id="kity_g_156" style="cursor: pointer;"><path id="kity_path_157" fill="none" stroke="none" d="M491.0000121816993,323.00000447779894h12a2,2,0,0,1,2,2v13a2,2,0,0,1,-2,2h-12a2,2,0,0,1,-2,-2v-13a2,2,0,0,1,2,-2z"></path><path id="kity_path_158" fill="black" stroke="none" d="M500.0000122189522,334.0000043809414H494.0000122189522V333.0000043809414h6L500.0000122189522,334.0000043809414L500.0000122189522,334.0000043809414zM500.0000122189522,332.0000043809414H494.0000122189522V331.0000043809414h6V332.0000043809414zM500.0000122189522,330.0000043809414H494.0000122189522V329.0000043809414h6V330.0000043809414zM499.5000122189522,336.0000043809414H493.0000122189522V327.0000043809414h8v7.5M500.0000122189522,337.0000043809414l2,-2V326.0000043809414H492.0000122189522v11"></path></g></g><g id="minder_node15"><g id="node_expander12" style="cursor: pointer;" display="none"><path id="kity_path_259" fill="white" stroke="gray" d="M405.50001085549593,363.0000049471855A6,6,0,1,1,393.50001085549593,363.0000049471855A6,6,0,1,1,405.50001085549593,363.0000049471855"></path><path id="kity_path_260" fill="none" stroke="gray"></path></g><path id="node_outline13" fill="none" stroke="none" d="M410.5000110194087,351.50000493973494h71a5,5,0,0,1,5,5v13a5,5,0,0,1,-5,5h-71a5,5,0,0,1,-5,-5v-13a5,5,0,0,1,5,-5z"></path><g id="node_text13" fill="black"><text id="kity_text_101" text-rendering="inherit" font-size="12" dy=".8em" y="354.70000491291285" x="410.5000110194087">双亲委派</text></g><g id="kity_g_159" style="cursor: pointer;"><path id="kity_path_160" fill="none" stroke="none" d="M468.00001183897257,354.00000493973494h12a2,2,0,0,1,2,2v13a2,2,0,0,1,-2,2h-12a2,2,0,0,1,-2,-2v-13a2,2,0,0,1,2,-2z"></path><path id="kity_path_161" fill="black" stroke="none" d="M477.00001187622547,365.0000048428774H471.00001187622547V364.0000048428774h6L477.00001187622547,365.0000048428774L477.00001187622547,365.0000048428774zM477.00001187622547,363.0000048428774H471.00001187622547V362.0000048428774h6V363.0000048428774zM477.00001187622547,361.0000048428774H471.00001187622547V360.0000048428774h6V361.0000048428774zM476.50001187622547,367.0000048428774H470.00001187622547V358.0000048428774h8v7.5M477.00001187622547,368.0000048428774l2,-2V357.0000048428774H469.00001187622547v11"></path></g></g><g id="minder_node16"><g id="node_expander13" style="cursor: pointer;" display="none"><path id="kity_path_262" fill="white" stroke="gray" d="M405.50001085549593,394.0000054091215A6,6,0,1,1,393.50001085549593,394.0000054091215A6,6,0,1,1,405.50001085549593,394.0000054091215"></path><path id="kity_path_263" fill="none" stroke="gray"></path></g><path id="node_outline14" fill="none" stroke="none" d="M410.5000110194087,382.50000540167093h99a5,5,0,0,1,5,5v13a5,5,0,0,1,-5,5h-99a5,5,0,0,1,-5,-5v-13a5,5,0,0,1,5,-5z"></path><g id="node_text14" fill="black"><text id="kity_text_103" text-rendering="inherit" font-size="12" dy=".8em" y="385.70000537484884" x="410.5000110194087">loadClass源码</text></g><g id="kity_g_162" style="cursor: pointer;"><path id="kity_path_163" fill="none" stroke="none" d="M496.0000122562051,385.00000540167093h12a2,2,0,0,1,2,2v13a2,2,0,0,1,-2,2h-12a2,2,0,0,1,-2,-2v-13a2,2,0,0,1,2,-2z"></path><path id="kity_path_164" fill="black" stroke="none" d="M505.000012293458,396.0000053048134H499.000012293458V395.0000053048134h6L505.000012293458,396.0000053048134L505.000012293458,396.0000053048134zM505.000012293458,394.0000053048134H499.000012293458V393.0000053048134h6V394.0000053048134zM505.000012293458,392.0000053048134H499.000012293458V391.0000053048134h6V392.0000053048134zM504.500012293458,398.0000053048134H498.000012293458V389.0000053048134h8v7.5M505.000012293458,399.0000053048134l2,-2V388.0000053048134H497.000012293458v11"></path></g></g><g id="minder_node17"><g id="node_expander20" style="cursor: pointer;"><path id="kity_path_283" fill="white" stroke="gray" d="M200.50000780075788,464.0000064522028A6,6,0,1,1,188.50000780075788,464.0000064522028A6,6,0,1,1,200.50000780075788,464.0000064522028"></path><path id="kity_path_284" fill="none" stroke="gray" d="M190.00000780075788,464.0000064522028L199.00000780075788,464.0000064522028"></path></g><path id="node_outline21" fill="rgb(238, 243, 246)" stroke="rgb(115, 161, 191)" d="M204.50000820308924,449.5000064447522h84a3,3,0,0,1,3,3v23a3,3,0,0,1,-3,3h-84a3,3,0,0,1,-3,-3v-23a3,3,0,0,1,3,-3z" stroke-width="1"></path><g id="node_text21" fill="black"><text id="kity_text_117" text-rendering="inherit" font-size="14" dy=".8em" y="454.4000064134598" x="221.50000820308924">链接</text></g><g id="kity_g_183" style="cursor: pointer;"><path id="kity_path_184" fill="none" stroke="none" d="M258.0000087097287,455.0000064447522h12a2,2,0,0,1,2,2v13a2,2,0,0,1,-2,2h-12a2,2,0,0,1,-2,-2v-13a2,2,0,0,1,2,-2z"></path><path id="kity_path_185" fill="black" stroke="none" d="M267.0000087469816,466.00000634789467H261.0000087469816V465.00000634789467h6L267.0000087469816,466.00000634789467L267.0000087469816,466.00000634789467zM267.0000087469816,464.00000634789467H261.0000087469816V463.00000634789467h6V464.00000634789467zM267.0000087469816,462.00000634789467H261.0000087469816V461.00000634789467h6V462.00000634789467zM266.5000087469816,468.00000634789467H260.0000087469816V459.00000634789467h8v7.5M267.0000087469816,469.00000634789467l2,-2V458.00000634789467H259.0000087469816v11"></path></g></g><g id="minder_node18"><g id="node_expander17" style="cursor: pointer;"><path id="kity_path_274" fill="white" stroke="gray" d="M307.50000939518213,433.0000059902668A6,6,0,1,1,295.50000939518213,433.0000059902668A6,6,0,1,1,307.50000939518213,433.0000059902668"></path><path id="kity_path_275" fill="none" stroke="gray" d="M297.00000939518213,433.0000059902668L306.00000939518213,433.0000059902668"></path></g><path id="node_outline18" fill="none" stroke="none" d="M312.5000095590949,421.5000059828162h47a5,5,0,0,1,5,5v13a5,5,0,0,1,-5,5h-47a5,5,0,0,1,-5,-5v-13a5,5,0,0,1,5,-5z"></path><g id="node_text18" fill="black"><text id="kity_text_111" text-rendering="inherit" font-size="12" dy=".8em" y="424.70000595599413" x="312.5000095590949">验证</text></g><g id="kity_g_174" style="cursor: pointer;"><path id="kity_path_175" fill="none" stroke="none" d="M346.0000100210309,424.0000059828162h12a2,2,0,0,1,2,2v13a2,2,0,0,1,-2,2h-12a2,2,0,0,1,-2,-2v-13a2,2,0,0,1,2,-2z"></path><path id="kity_path_176" fill="black" stroke="none" d="M355.0000100582838,435.00000588595867H349.0000100582838V434.00000588595867h6L355.0000100582838,435.00000588595867L355.0000100582838,435.00000588595867zM355.0000100582838,433.00000588595867H349.0000100582838V432.00000588595867h6V433.00000588595867zM355.0000100582838,431.00000588595867H349.0000100582838V430.00000588595867h6V431.00000588595867zM354.5000100582838,437.00000588595867H348.0000100582838V428.00000588595867h8v7.5M355.0000100582838,438.00000588595867l2,-2V427.00000588595867H347.0000100582838v11"></path></g></g><g id="minder_node19"><g id="node_expander16" style="cursor: pointer;" display="none"><path id="kity_path_271" fill="white" stroke="gray" d="M380.5000104829669,433.0000059902668A6,6,0,1,1,368.5000104829669,433.0000059902668A6,6,0,1,1,380.5000104829669,433.0000059902668"></path><path id="kity_path_272" fill="none" stroke="gray"></path></g><path id="node_outline17" fill="none" stroke="none" d="M385.5000106468797,421.5000059828162h47a5,5,0,0,1,5,5v13a5,5,0,0,1,-5,5h-47a5,5,0,0,1,-5,-5v-13a5,5,0,0,1,5,-5z"></path><g id="node_text17" fill="black"><text id="kity_text_109" text-rendering="inherit" font-size="12" dy=".8em" y="424.70000595599413" x="385.5000106468797">纠错</text></g><g id="kity_g_171" style="cursor: pointer;"><path id="kity_path_172" fill="none" stroke="none" d="M419.00001110881567,424.0000059828162h12a2,2,0,0,1,2,2v13a2,2,0,0,1,-2,2h-12a2,2,0,0,1,-2,-2v-13a2,2,0,0,1,2,-2z"></path><path id="kity_path_173" fill="black" stroke="none" d="M428.0000111460686,435.00000588595867H422.0000111460686V434.00000588595867h6L428.0000111460686,435.00000588595867L428.0000111460686,435.00000588595867zM428.0000111460686,433.00000588595867H422.0000111460686V432.00000588595867h6V433.00000588595867zM428.0000111460686,431.00000588595867H422.0000111460686V430.00000588595867h6V431.00000588595867zM427.5000111460686,437.00000588595867H421.0000111460686V428.00000588595867h8v7.5M428.0000111460686,438.00000588595867l2,-2V427.00000588595867H420.0000111460686v11"></path></g></g><g id="minder_node20"><g id="node_expander18" style="cursor: pointer;" display="none"><path id="kity_path_277" fill="white" stroke="gray" d="M307.50000939518213,464.0000064522028A6,6,0,1,1,295.50000939518213,464.0000064522028A6,6,0,1,1,307.50000939518213,464.0000064522028"></path><path id="kity_path_278" fill="none" stroke="gray"></path></g><path id="node_outline19" fill="none" stroke="none" d="M312.5000095590949,452.5000064447522h46a5,5,0,0,1,5,5v13a5,5,0,0,1,-5,5h-46a5,5,0,0,1,-5,-5v-13a5,5,0,0,1,5,-5z"></path><g id="node_text19" fill="black"><text id="kity_text_113" text-rendering="inherit" font-size="12" dy=".8em" y="455.7000064179301" x="312.5000095590949">准备</text></g><g id="kity_g_177" style="cursor: pointer;"><path id="kity_path_178" fill="none" stroke="none" d="M345.00001000612974,455.0000064447522h12a2,2,0,0,1,2,2v13a2,2,0,0,1,-2,2h-12a2,2,0,0,1,-2,-2v-13a2,2,0,0,1,2,-2z"></path><path id="kity_path_179" fill="black" stroke="none" d="M354.00001004338264,466.00000634789467H348.00001004338264V465.00000634789467h6L354.00001004338264,466.00000634789467L354.00001004338264,466.00000634789467zM354.00001004338264,464.00000634789467H348.00001004338264V463.00000634789467h6V464.00000634789467zM354.00001004338264,462.00000634789467H348.00001004338264V461.00000634789467h6V462.00000634789467zM353.50001004338264,468.00000634789467H347.00001004338264V459.00000634789467h8v7.5M354.00001004338264,469.00000634789467l2,-2V458.00000634789467H346.00001004338264v11"></path></g></g><g id="minder_node21"><g id="node_expander19" style="cursor: pointer;" display="none"><path id="kity_path_280" fill="white" stroke="gray" d="M307.50000939518213,495.0000069141388A6,6,0,1,1,295.50000939518213,495.0000069141388A6,6,0,1,1,307.50000939518213,495.0000069141388"></path><path id="kity_path_281" fill="none" stroke="gray"></path></g><path id="node_outline20" fill="none" stroke="none" d="M312.5000095590949,483.5000069066882h47a5,5,0,0,1,5,5v13a5,5,0,0,1,-5,5h-47a5,5,0,0,1,-5,-5v-13a5,5,0,0,1,5,-5z"></path><g id="node_text20" fill="black"><text id="kity_text_115" text-rendering="inherit" font-size="12" dy=".8em" y="486.7000068798661" x="312.5000095590949">解析</text></g><g id="kity_g_180" style="cursor: pointer;"><path id="kity_path_181" fill="none" stroke="none" d="M346.0000100210309,486.0000069066882h12a2,2,0,0,1,2,2v13a2,2,0,0,1,-2,2h-12a2,2,0,0,1,-2,-2v-13a2,2,0,0,1,2,-2z"></path><path id="kity_path_182" fill="black" stroke="none" d="M355.0000100582838,497.00000680983067H349.0000100582838V496.00000680983067h6L355.0000100582838,497.00000680983067L355.0000100582838,497.00000680983067zM355.0000100582838,495.00000680983067H349.0000100582838V494.00000680983067h6V495.00000680983067zM355.0000100582838,493.00000680983067H349.0000100582838V492.00000680983067h6V493.00000680983067zM354.5000100582838,499.00000680983067H348.0000100582838V490.00000680983067h8v7.5M355.0000100582838,500.00000680983067l2,-2V489.00000680983067H347.0000100582838v11"></path></g></g><g id="minder_node22"><g id="node_expander22" style="cursor: pointer;"><path id="kity_path_289" fill="white" stroke="gray" d="M200.50000780075788,537.0000075399876A6,6,0,1,1,188.50000780075788,537.0000075399876A6,6,0,1,1,200.50000780075788,537.0000075399876"></path><path id="kity_path_290" fill="none" stroke="gray" d="M190.00000780075788,537.0000075399876L199.00000780075788,537.0000075399876"></path></g><path id="node_outline23" fill="rgb(238, 243, 246)" stroke="rgb(115, 161, 191)" d="M204.50000820308924,522.500007532537h99a3,3,0,0,1,3,3v23a3,3,0,0,1,-3,3h-99a3,3,0,0,1,-3,-3v-23a3,3,0,0,1,3,-3z" stroke-width="1"></path><g id="node_text23" fill="black"><text id="kity_text_121" text-rendering="inherit" font-size="14" dy=".8em" y="527.4000075012445" x="221.50000820308924">初始化</text></g><g id="kity_g_189" style="cursor: pointer;"><path id="kity_path_190" fill="none" stroke="none" d="M273.00000893324614,528.000007532537h12a2,2,0,0,1,2,2v13a2,2,0,0,1,-2,2h-12a2,2,0,0,1,-2,-2v-13a2,2,0,0,1,2,-2z"></path><path id="kity_path_191" fill="black" stroke="none" d="M282.00000897049904,539.0000074356794H276.00000897049904V538.0000074356794h6L282.00000897049904,539.0000074356794L282.00000897049904,539.0000074356794zM282.00000897049904,537.0000074356794H276.00000897049904V536.0000074356794h6V537.0000074356794zM282.00000897049904,535.0000074356794H276.00000897049904V534.0000074356794h6V535.0000074356794zM281.50000897049904,541.0000074356794H275.00000897049904V532.0000074356794h8v7.5M282.00000897049904,542.0000074356794l2,-2V531.0000074356794H274.00000897049904v11"></path></g></g><g id="minder_node23"><g id="node_expander21" style="cursor: pointer;" display="none"><path id="kity_path_286" fill="white" stroke="gray" d="M322.50000961869955,537.0000075399876A6,6,0,1,1,310.50000961869955,537.0000075399876A6,6,0,1,1,322.50000961869955,537.0000075399876"></path><path id="kity_path_287" fill="none" stroke="gray"></path></g><path id="node_outline22" fill="none" stroke="none" d="M327.5000097826123,525.500007532537h106a5,5,0,0,1,5,5v13a5,5,0,0,1,-5,5h-106a5,5,0,0,1,-5,-5v-13a5,5,0,0,1,5,-5z"></path><g id="node_text22" fill="black"><text id="kity_text_119" text-rendering="inherit" font-size="12" dy=".8em" y="528.7000075057149" x="327.5000097826123">单例延迟初始化</text></g><g id="kity_g_186" style="cursor: pointer;"><path id="kity_path_187" fill="none" stroke="none" d="M420.00001112371683,528.000007532537h12a2,2,0,0,1,2,2v13a2,2,0,0,1,-2,2h-12a2,2,0,0,1,-2,-2v-13a2,2,0,0,1,2,-2z"></path><path id="kity_path_188" fill="black" stroke="none" d="M429.00001116096973,539.0000074356794H423.00001116096973V538.0000074356794h6L429.00001116096973,539.0000074356794L429.00001116096973,539.0000074356794zM429.00001116096973,537.0000074356794H423.00001116096973V536.0000074356794h6V537.0000074356794zM429.00001116096973,535.0000074356794H423.00001116096973V534.0000074356794h6V535.0000074356794zM428.50001116096973,541.0000074356794H422.00001116096973V532.0000074356794h8v7.5M429.00001116096973,542.0000074356794l2,-2V531.0000074356794H421.00001116096973v11"></path></g></g><g id="minder_node24"><g id="node_expander23" style="cursor: pointer;" display="none"><path id="kity_path_292" fill="white" stroke="gray" d="M200.50000780075788,582.0000082105398A6,6,0,1,1,188.50000780075788,582.0000082105398A6,6,0,1,1,200.50000780075788,582.0000082105398"></path><path id="kity_path_293" fill="none" stroke="gray"></path></g><path id="node_outline24" fill="rgb(238, 243, 246)" stroke="rgb(115, 161, 191)" d="M204.50000820308924,567.5000082030892h84a3,3,0,0,1,3,3v23a3,3,0,0,1,-3,3h-84a3,3,0,0,1,-3,-3v-23a3,3,0,0,1,3,-3z" stroke-width="1"></path><g id="node_text24" fill="black"><text id="kity_text_123" text-rendering="inherit" font-size="14" dy=".8em" y="572.4000081717968" x="221.50000820308924">总结</text></g><g id="kity_g_192" style="cursor: pointer;"><path id="kity_path_193" fill="none" stroke="none" d="M258.0000087097287,573.0000082030892h12a2,2,0,0,1,2,2v13a2,2,0,0,1,-2,2h-12a2,2,0,0,1,-2,-2v-13a2,2,0,0,1,2,-2z"></path><path id="kity_path_194" fill="black" stroke="none" d="M267.0000087469816,584.0000081062317H261.0000087469816V583.0000081062317h6L267.0000087469816,584.0000081062317L267.0000087469816,584.0000081062317zM267.0000087469816,582.0000081062317H261.0000087469816V581.0000081062317h6V582.0000081062317zM267.0000087469816,580.0000081062317H261.0000087469816V579.0000081062317h6V580.0000081062317zM266.5000087469816,586.0000081062317H260.0000087469816V577.0000081062317h8v7.5M267.0000087469816,587.0000081062317l2,-2V576.0000081062317H259.0000087469816v11"></path></g></g><g id="minder_node25"><g id="node_expander24" style="cursor: pointer;" display="none"><path id="kity_path_295" fill="white" stroke="gray" d="M200.50000780075788,627.0000088810921A6,6,0,1,1,188.50000780075788,627.0000088810921A6,6,0,1,1,200.50000780075788,627.0000088810921"></path><path id="kity_path_296" fill="none" stroke="gray"></path></g><path id="node_outline25" fill="rgb(238, 243, 246)" stroke="rgb(115, 161, 191)" d="M204.50000820308924,612.5000088736415h112a3,3,0,0,1,3,3v23a3,3,0,0,1,-3,3h-112a3,3,0,0,1,-3,-3v-23a3,3,0,0,1,3,-3z" stroke-width="1"></path><g id="node_text25" fill="black"><text id="kity_text_125" text-rendering="inherit" font-size="14" dy=".8em" y="617.400008842349" x="221.50000820308924">参考资料</text></g><g id="kity_g_195" style="cursor: pointer;"><path id="kity_path_196" fill="none" stroke="none" d="M286.00000912696123,618.0000088736415h12a2,2,0,0,1,2,2v13a2,2,0,0,1,-2,2h-12a2,2,0,0,1,-2,-2v-13a2,2,0,0,1,2,-2z"></path><path id="kity_path_197" fill="black" stroke="none" d="M295.00000916421413,629.000008776784H289.00000916421413V628.000008776784h6L295.00000916421413,629.000008776784L295.00000916421413,629.000008776784zM295.00000916421413,627.000008776784H289.00000916421413V626.000008776784h6V627.000008776784zM295.00000916421413,625.000008776784H289.00000916421413V624.000008776784h6V625.000008776784zM294.50000916421413,631.000008776784H288.00000916421413V622.000008776784h8v7.5M295.00000916421413,632.000008776784l2,-2V621.000008776784H287.00000916421413v11"></path></g></g></g></g></svg>