<svg id="kity_svg_6" xmlns="http://www.w3.org/2000/svg" xmlns:xlink="http://www.w3.org/1999/xlink" version="1.1" width="813" height="939" style="background: rgb(251, 251, 251); visibility: visible;" viewBox="0 0 813 939"><defs id="kity_defs_7"><linearGradient id="kity_linearGradient_17" x1="0" y1="0" x2="0" y2="1"><stop id="kity_stop_18" offset="0" stop-color="rgb(255, 255, 255)"></stop><stop id="kity_stop_19" offset="1" stop-color="rgb(204, 204, 204)"></stop></linearGradient><marker id="kity_marker_2" orient="auto" refX="6" refY="0" viewBox="-7 -7 14 14" markerWidth="7" markerHeight="7" markerUnits="userSpaceOnUse"><path id="kity_path_3" fill="rgb(115, 161, 191)" stroke="none" d="M6,0A6,6,0,1,1,-6,0A6,6,0,1,1,6,0"></path></marker></defs><g id="kity_g_8"><g id="minder1" text-rendering="geometricPrecision"><g id="minder_connect_group1"><path id="kity_path_31" fill="none" stroke="rgb(115, 161, 191)" stroke-width="1" d="M82.4999936632812,484.0000007264316A77,422.5,0,0,1,159.4999936632812,61.50000072643161"></path><path id="kity_path_33" fill="none" stroke="rgb(115, 161, 191)" stroke-width="1" d="M271.4999936632812,61.50000072643161C279.4999936632812,61.50000072643161,279.4999936632812,31.000000726431608,287.4999936632812,31.000000726431608"></path><path id="kity_path_35" fill="none" stroke="rgb(115, 161, 191)" stroke-width="1" d="M271.4999936632812,61.50000072643161C279.4999936632812,61.50000072643161,279.4999936632812,62.00000072643161,287.4999936632812,62.00000072643161"></path><path id="kity_path_37" fill="none" stroke="rgb(115, 161, 191)" stroke-width="1" d="M271.4999936632812,61.50000072643161C279.4999936632812,61.50000072643161,279.4999936632812,93.00000072643161,287.4999936632812,93.00000072643161"></path><path id="kity_path_39" fill="none" stroke="rgb(115, 161, 191)" stroke-width="1" d="M82.4999936632812,484.0000007264316A77,5.5,0,0,1,159.4999936632812,478.5000007264316"></path><path id="kity_path_41" fill="none" stroke="rgb(115, 161, 191)" stroke-width="1" d="M293.4999936632812,478.5000007264316C301.4999936632812,478.5000007264316,301.4999936632812,132.0000007264316,309.4999936632812,132.0000007264316"></path><path id="kity_path_43" fill="none" stroke="rgb(115, 161, 191)" stroke-width="1" d="M293.4999936632812,478.5000007264316C301.4999936632812,478.5000007264316,301.4999936632812,179.0000007264316,309.4999936632812,179.0000007264316"></path><path id="kity_path_45" fill="none" stroke="rgb(115, 161, 191)" stroke-width="1" d="M496.4999936632812,179.5000007264316C504.4999936632812,179.0000007264316,504.4999936632812,179.0000007264316,512.4999936632812,179.0000007264316"></path><path id="kity_path_47" fill="none" stroke="rgb(115, 161, 191)" stroke-width="1" d="M568.4999936632812,179.5000007264316C576.4999936632812,179.0000007264316,576.4999936632812,164.0000007264316,584.4999936632812,164.0000007264316"></path><path id="kity_path_49" fill="none" stroke="rgb(115, 161, 191)" stroke-width="1" d="M568.4999936632812,179.5000007264316C576.4999936632812,179.0000007264316,576.4999936632812,195.0000007264316,584.4999936632812,195.0000007264316"></path><path id="kity_path_51" fill="none" stroke="rgb(115, 161, 191)" stroke-width="1" d="M293.4999936632812,478.5000007264316C301.4999936632812,478.5000007264316,301.4999936632812,225.0000007264316,309.4999936632812,225.0000007264316"></path><path id="kity_path_53" fill="none" stroke="rgb(115, 161, 191)" stroke-width="1" d="M293.4999936632812,478.5000007264316C301.4999936632812,478.5000007264316,301.4999936632812,256.0000007264316,309.4999936632812,256.0000007264316"></path><path id="kity_path_55" fill="none" stroke="rgb(115, 161, 191)" stroke-width="1" d="M499.4999936632812,256.5000007264316C507.4999936632812,256.0000007264316,507.4999936632812,256.0000007264316,515.4999936632812,256.0000007264316"></path><path id="kity_path_57" fill="none" stroke="rgb(115, 161, 191)" stroke-width="1" d="M293.4999936632812,478.5000007264316C301.4999936632812,478.5000007264316,301.4999936632812,288.5000007264316,309.4999936632812,288.5000007264316"></path><path id="kity_path_59" fill="none" stroke="rgb(115, 161, 191)" stroke-width="1" d="M293.4999936632812,478.5000007264316C301.4999936632812,478.5000007264316,301.4999936632812,321.0000007264316,309.4999936632812,321.0000007264316"></path><path id="kity_path_61" fill="none" stroke="rgb(115, 161, 191)" stroke-width="1" d="M293.4999936632812,478.5000007264316C301.4999936632812,478.5000007264316,301.4999936632812,352.0000007264316,309.4999936632812,352.0000007264316"></path><path id="kity_path_63" fill="none" stroke="rgb(115, 161, 191)" stroke-width="1" d="M293.4999936632812,478.5000007264316C301.4999936632812,478.5000007264316,301.4999936632812,383.0000007264316,309.4999936632812,383.0000007264316"></path><path id="kity_path_65" fill="none" stroke="rgb(115, 161, 191)" stroke-width="1" d="M293.4999936632812,478.5000007264316C301.4999936632812,478.5000007264316,301.4999936632812,414.0000007264316,309.4999936632812,414.0000007264316"></path><path id="kity_path_67" fill="none" stroke="rgb(115, 161, 191)" stroke-width="1" d="M293.4999936632812,478.5000007264316C301.4999936632812,478.5000007264316,301.4999936632812,445.0000007264316,309.4999936632812,445.0000007264316"></path><path id="kity_path_69" fill="none" stroke="rgb(115, 161, 191)" stroke-width="1" d="M293.4999936632812,478.5000007264316C301.4999936632812,478.5000007264316,301.4999936632812,476.0000007264316,309.4999936632812,476.0000007264316"></path><path id="kity_path_71" fill="none" stroke="rgb(115, 161, 191)" stroke-width="1" d="M463.4999936632812,476.5000007264316C471.4999936632812,476.0000007264316,471.4999936632812,476.0000007264316,479.4999936632812,476.0000007264316"></path><path id="kity_path_73" fill="none" stroke="rgb(115, 161, 191)" stroke-width="1" d="M293.4999936632812,478.5000007264316C301.4999936632812,478.5000007264316,301.4999936632812,507.0000007264316,309.4999936632812,507.0000007264316"></path><path id="kity_path_75" fill="none" stroke="rgb(115, 161, 191)" stroke-width="1" d="M293.4999936632812,478.5000007264316C301.4999936632812,478.5000007264316,301.4999936632812,539.5000007264316,309.4999936632812,539.5000007264316"></path><path id="kity_path_77" fill="none" stroke="rgb(115, 161, 191)" stroke-width="1" d="M585.4999936632812,539.5000007264316C593.4999936632812,539.5000007264316,593.4999936632812,540.0000007264316,601.4999936632812,540.0000007264316"></path><path id="kity_path_79" fill="none" stroke="rgb(115, 161, 191)" stroke-width="1" d="M293.4999936632812,478.5000007264316C301.4999936632812,478.5000007264316,301.4999936632812,665.0000007264316,309.4999936632812,665.0000007264316"></path><path id="kity_path_81" fill="none" stroke="rgb(115, 161, 191)" stroke-width="1" d="M493.4999936632812,665.5000007264316C501.4999936632812,665.0000007264316,501.4999936632812,603.0000007264316,509.4999936632812,603.0000007264316"></path><path id="kity_path_83" fill="none" stroke="rgb(115, 161, 191)" stroke-width="1" d="M613.4999936632812,603.5000007264316C621.4999936632812,603.0000007264316,621.4999936632812,572.0000007264316,629.4999936632812,572.0000007264316"></path><path id="kity_path_85" fill="none" stroke="rgb(115, 161, 191)" stroke-width="1" d="M613.4999936632812,603.5000007264316C621.4999936632812,603.0000007264316,621.4999936632812,603.0000007264316,629.4999936632812,603.0000007264316"></path><path id="kity_path_87" fill="none" stroke="rgb(115, 161, 191)" stroke-width="1" d="M613.4999936632812,603.5000007264316C621.4999936632812,603.0000007264316,621.4999936632812,634.0000007264316,629.4999936632812,634.0000007264316"></path><path id="kity_path_89" fill="none" stroke="rgb(115, 161, 191)" stroke-width="1" d="M493.4999936632812,665.5000007264316C501.4999936632812,665.0000007264316,501.4999936632812,665.0000007264316,509.4999936632812,665.0000007264316"></path><path id="kity_path_91" fill="none" stroke="rgb(115, 161, 191)" stroke-width="1" d="M614.4999936632812,665.5000007264316C622.4999936632812,665.0000007264316,622.4999936632812,665.0000007264316,630.4999936632812,665.0000007264316"></path><path id="kity_path_93" fill="none" stroke="rgb(115, 161, 191)" stroke-width="1" d="M493.4999936632812,665.5000007264316C501.4999936632812,665.0000007264316,501.4999936632812,696.0000007264316,509.4999936632812,696.0000007264316"></path><path id="kity_path_95" fill="none" stroke="rgb(115, 161, 191)" stroke-width="1" d="M493.4999936632812,665.5000007264316C501.4999936632812,665.0000007264316,501.4999936632812,727.0000007264316,509.4999936632812,727.0000007264316"></path><path id="kity_path_97" fill="none" stroke="rgb(115, 161, 191)" stroke-width="1" d="M293.4999936632812,478.5000007264316C301.4999936632812,478.5000007264316,301.4999936632812,759.5000007264316,309.4999936632812,759.5000007264316"></path><path id="kity_path_99" fill="none" stroke="rgb(115, 161, 191)" stroke-width="1" d="M293.4999936632812,478.5000007264316C301.4999936632812,478.5000007264316,301.4999936632812,827.5000007264316,309.4999936632812,827.5000007264316"></path><path id="kity_path_101" fill="none" stroke="rgb(115, 161, 191)" stroke-width="1" d="M379.4999936632812,827.5000007264316C387.4999936632812,827.5000007264316,387.4999936632812,793.5000007264316,395.4999936632812,793.5000007264316"></path><path id="kity_path_103" fill="none" stroke="rgb(115, 161, 191)" stroke-width="1" d="M379.4999936632812,827.5000007264316C387.4999936632812,827.5000007264316,387.4999936632812,827.5000007264316,395.4999936632812,827.5000007264316"></path><path id="kity_path_105" fill="none" stroke="rgb(115, 161, 191)" stroke-width="1" d="M379.4999936632812,827.5000007264316C387.4999936632812,827.5000007264316,387.4999936632812,861.5000007264316,395.4999936632812,861.5000007264316"></path><path id="kity_path_107" fill="none" stroke="rgb(115, 161, 191)" stroke-width="1" d="M82.4999936632812,484.0000007264316A77,421,0,0,0,159.4999936632812,905.0000007264316"></path></g><g id="minder_node1"><path id="node_outline1" fill="rgb(115, 161, 191)" stroke="rgb(115, 161, 191)" d="M26.499993663281202,469.5000007264316h112a5,5,0,0,1,5,5v19a5,5,0,0,1,-5,5h-112a5,5,0,0,1,-5,-5v-19a5,5,0,0,1,5,-5z" stroke-width="3"></path><g id="node_text1" fill="white"><text id="kity_text_22" text-rendering="inherit" font-size="16" dy=".8em" y="473.10000062748793" x="33.4999936632812">Drawable</text></g><g id="kity_g_282" style="cursor: pointer;"><path id="kity_path_283" fill="none" stroke="none" d="M117.99999183043838,475.0000007264316h12a2,2,0,0,1,2,2v13a2,2,0,0,1,-2,2h-12a2,2,0,0,1,-2,-2v-13a2,2,0,0,1,2,-2z"></path><path id="kity_path_284" fill="white" stroke="none" d="M126.99999177455902,486.00000087171793H120.99999177455902V485.00000087171793h6L126.99999177455902,486.00000087171793L126.99999177455902,486.00000087171793zM126.99999177455902,484.00000087171793H120.99999177455902V483.00000087171793h6V484.00000087171793zM126.99999177455902,482.00000087171793H120.99999177455902V481.00000087171793h6V482.00000087171793zM126.49999177455902,488.00000087171793H119.99999177455902V479.00000087171793h8v7.5M126.99999177455902,489.00000087171793l2,-2V478.00000087171793H118.99999177455902v11"></path></g></g><g id="kity_g_12"><path id="kity_path_13" fill="none" stroke="none" d="M33.4999936632812,483.5000007264316h0v0h0z"></path></g><g id="kity_g_14"><path id="kity_path_15" fill="none" stroke="none" d="M33.4999936632812,483.5000007264316h0v0h0z"></path><path id="kity_path_16" fill="none" stroke="none"></path></g><g id="minder_node2"><g id="node_expander4" style="cursor: pointer;"><path id="kity_path_334" fill="white" stroke="gray" d="M160.49999095872045,61.500010158866644A6,6,0,1,1,148.49999095872045,61.500010158866644A6,6,0,1,1,160.49999095872045,61.500010158866644"></path><path id="kity_path_335" fill="none" stroke="gray" d="M149.99999095872045,61.500010158866644L158.99999095872045,61.500010158866644"></path></g><path id="node_outline5" fill="rgb(238, 243, 246)" stroke="rgb(115, 161, 191)" d="M164.49999035522342,48.500010158866644h104a3,3,0,0,1,3,3v20a3,3,0,0,1,-3,3h-104a3,3,0,0,1,-3,-3v-20a3,3,0,0,1,3,-3z" stroke-width="1"></path><g id="node_text5" fill="black"><text id="kity_text_115" text-rendering="inherit" font-size="14" dy=".8em" y="52.40001035839319" x="181.49999035522342">基本知识点</text></g></g><g id="minder_node3"><g id="node_expander1" style="cursor: pointer;" display="none"><path id="kity_path_325" fill="white" stroke="gray" d="M287.49998812004924,31.00001084059477A6,6,0,1,1,275.49998812004924,31.00001084059477A6,6,0,1,1,287.49998812004924,31.00001084059477"></path><path id="kity_path_326" fill="none" stroke="gray"></path></g><path id="node_outline2" fill="none" stroke="none" d="M292.4999878741801,19.50001085177064h121a5,5,0,0,1,5,5v13a5,5,0,0,1,-5,5h-121a5,5,0,0,1,-5,-5v-13a5,5,0,0,1,5,-5z"></path><g id="node_text2" fill="black"><text id="kity_text_109" text-rendering="inherit" font-size="12" dy=".8em" y="22.700010892003775" x="292.4999878741801">1.Drawable是什么</text></g><g id="kity_g_186" style="cursor: pointer;"><path id="kity_path_187" fill="none" stroke="none" d="M399.9999855272472,22.00001085177064h12a2,2,0,0,1,2,2v13a2,2,0,0,1,-2,2h-12a2,2,0,0,1,-2,-2v-13a2,2,0,0,1,2,-2z"></path><path id="kity_path_188" fill="black" stroke="none" d="M408.99998547136784,33.00001099705696H402.99998547136784V32.00001099705696h6L408.99998547136784,33.00001099705696L408.99998547136784,33.00001099705696zM408.99998547136784,31.00001099705696H402.99998547136784V30.00001099705696h6V31.00001099705696zM408.99998547136784,29.00001099705696H402.99998547136784V28.00001099705696h6V29.00001099705696zM408.49998547136784,35.00001099705696H401.99998547136784V26.00001099705696h8v7.5M408.99998547136784,36.00001099705696l2,-2V25.00001099705696H400.99998547136784v11"></path></g></g><g id="minder_node4"><g id="node_expander2" style="cursor: pointer;" display="none"><path id="kity_path_328" fill="white" stroke="gray" d="M287.49998812004924,62.00001014769077A6,6,0,1,1,275.49998812004924,62.00001014769077A6,6,0,1,1,287.49998812004924,62.00001014769077"></path><path id="kity_path_329" fill="none" stroke="gray"></path></g><path id="node_outline3" fill="none" stroke="none" d="M292.4999878741801,50.500010158866644h121a5,5,0,0,1,5,5v13a5,5,0,0,1,-5,5h-121a5,5,0,0,1,-5,-5v-13a5,5,0,0,1,5,-5z"></path><g id="node_text3" fill="black"><text id="kity_text_111" text-rendering="inherit" font-size="12" dy=".8em" y="53.70001019909978" x="292.4999878741801">2.Drawable的优点</text></g><g id="kity_g_189" style="cursor: pointer;"><path id="kity_path_190" fill="none" stroke="none" d="M399.9999855272472,53.000010158866644h12a2,2,0,0,1,2,2v13a2,2,0,0,1,-2,2h-12a2,2,0,0,1,-2,-2v-13a2,2,0,0,1,2,-2z"></path><path id="kity_path_191" fill="black" stroke="none" d="M408.99998547136784,64.00001030415297H402.99998547136784V63.000010304152966h6L408.99998547136784,64.00001030415297L408.99998547136784,64.00001030415297zM408.99998547136784,62.000010304152966H402.99998547136784V61.000010304152966h6V62.000010304152966zM408.99998547136784,60.000010304152966H402.99998547136784V59.000010304152966h6V60.000010304152966zM408.49998547136784,66.00001030415297H401.99998547136784V57.000010304152966h8v7.5M408.99998547136784,67.00001030415297l2,-2V56.000010304152966H400.99998547136784v11"></path></g></g><g id="minder_node5"><g id="node_expander3" style="cursor: pointer;" display="none"><path id="kity_path_331" fill="white" stroke="gray" d="M287.49998812004924,93.00000945478678A6,6,0,1,1,275.49998812004924,93.00000945478678A6,6,0,1,1,287.49998812004924,93.00000945478678"></path><path id="kity_path_332" fill="none" stroke="gray"></path></g><path id="node_outline4" fill="none" stroke="none" d="M292.4999878741801,81.50000946596265h150a5,5,0,0,1,5,5v13a5,5,0,0,1,-5,5h-150a5,5,0,0,1,-5,-5v-13a5,5,0,0,1,5,-5z"></path><g id="node_text4" fill="black"><text id="kity_text_113" text-rendering="inherit" font-size="12" dy=".8em" y="84.70000950619578" x="292.4999878741801">3.Drawable的内部宽/高</text></g><g id="kity_g_192" style="cursor: pointer;"><path id="kity_path_193" fill="none" stroke="none" d="M428.9999848790467,84.00000946596265h12a2,2,0,0,1,2,2v13a2,2,0,0,1,-2,2h-12a2,2,0,0,1,-2,-2v-13a2,2,0,0,1,2,-2z"></path><path id="kity_path_194" fill="black" stroke="none" d="M437.9999848231673,95.00000961124897H431.9999848231673V94.00000961124897h6L437.9999848231673,95.00000961124897L437.9999848231673,95.00000961124897zM437.9999848231673,93.00000961124897H431.9999848231673V92.00000961124897h6V93.00000961124897zM437.9999848231673,91.00000961124897H431.9999848231673V90.00000961124897h6V91.00000961124897zM437.4999848231673,97.00000961124897H430.9999848231673V88.00000961124897h8v7.5M437.9999848231673,98.00000961124897l2,-2V87.00000961124897H429.9999848231673v11"></path></g></g><g id="minder_node6"><g id="node_expander38" style="cursor: pointer;"><path id="kity_path_436" fill="white" stroke="gray" d="M160.49999095872045,478.5000008381903A6,6,0,1,1,148.49999095872045,478.5000008381903A6,6,0,1,1,160.49999095872045,478.5000008381903"></path><path id="kity_path_437" fill="none" stroke="gray" d="M149.99999095872045,478.5000008381903L158.99999095872045,478.5000008381903"></path></g><path id="node_outline39" fill="rgb(238, 243, 246)" stroke="rgb(115, 161, 191)" d="M164.49999035522342,465.5000008381903h126a3,3,0,0,1,3,3v20a3,3,0,0,1,-3,3h-126a3,3,0,0,1,-3,-3v-20a3,3,0,0,1,3,-3z" stroke-width="1"></path><g id="node_text39" fill="black"><text id="kity_text_183" text-rendering="inherit" font-size="14" dy=".8em" y="469.40000103771683" x="181.49999035522342">Drawable分类</text></g></g><g id="minder_node7"><g id="node_expander5" style="cursor: pointer;" display="none"><path id="kity_path_337" fill="white" stroke="gray" d="M309.4999876283109,132.00000858306885A6,6,0,1,1,297.4999876283109,132.00000858306885A6,6,0,1,1,309.4999876283109,132.00000858306885"></path><path id="kity_path_338" fill="none" stroke="gray"></path></g><path id="node_outline6" fill="none" stroke="none" d="M314.49998738244176,120.50000859424472h155a5,5,0,0,1,5,5v13a5,5,0,0,1,-5,5h-155a5,5,0,0,1,-5,-5v-13a5,5,0,0,1,5,-5z"></path><g id="node_text6" fill="black"><text id="kity_text_117" text-rendering="inherit" font-size="12" dy=".8em" y="123.70000863447785" x="314.49998738244176">1-ColorDrawable(color)</text></g><g id="kity_g_195" style="cursor: pointer;"><path id="kity_path_196" fill="none" stroke="none" d="M455.99998427554965,123.00000859424472h12a2,2,0,0,1,2,2v13a2,2,0,0,1,-2,2h-12a2,2,0,0,1,-2,-2v-13a2,2,0,0,1,2,-2z"></path><path id="kity_path_197" fill="black" stroke="none" d="M464.9999842196703,134.00000873953104H458.9999842196703V133.00000873953104h6L464.9999842196703,134.00000873953104L464.9999842196703,134.00000873953104zM464.9999842196703,132.00000873953104H458.9999842196703V131.00000873953104h6V132.00000873953104zM464.9999842196703,130.00000873953104H458.9999842196703V129.00000873953104h6V130.00000873953104zM464.4999842196703,136.00000873953104H457.9999842196703V127.00000873953104h8v7.5M464.9999842196703,137.00000873953104l2,-2V126.00000873953104H456.9999842196703v11"></path></g></g><g id="minder_node8"><g id="node_expander9" style="cursor: pointer;"><path id="kity_path_349" fill="white" stroke="gray" d="M309.4999876283109,179.00000753253698A6,6,0,1,1,297.4999876283109,179.00000753253698A6,6,0,1,1,309.4999876283109,179.00000753253698"></path><path id="kity_path_350" fill="none" stroke="gray" d="M298.9999876283109,179.00000753253698L307.9999876283109,179.00000753253698"></path></g><path id="node_outline10" fill="none" stroke="none" d="M314.49998738244176,167.50000754371285h177a5,5,0,0,1,5,5v13a5,5,0,0,1,-5,5h-177a5,5,0,0,1,-5,-5v-13a5,5,0,0,1,5,-5z" stroke-width="3"></path><g id="node_text10" fill="black"><text id="kity_text_125" text-rendering="inherit" font-size="12" dy=".8em" y="170.700007583946" x="314.49998738244176">2-BitmapDrawable(bitmap)</text></g><g id="kity_g_207" style="cursor: pointer;"><path id="kity_path_208" fill="none" stroke="none" d="M477.99998378381133,170.00000754371285h12a2,2,0,0,1,2,2v13a2,2,0,0,1,-2,2h-12a2,2,0,0,1,-2,-2v-13a2,2,0,0,1,2,-2z"></path><path id="kity_path_209" fill="black" stroke="none" d="M486.999983727932,181.00000768899918H480.999983727932V180.00000768899918h6L486.999983727932,181.00000768899918L486.999983727932,181.00000768899918zM486.999983727932,179.00000768899918H480.999983727932V178.00000768899918h6V179.00000768899918zM486.999983727932,177.00000768899918H480.999983727932V176.00000768899918h6V177.00000768899918zM486.499983727932,183.00000768899918H479.999983727932V174.00000768899918h8v7.5M486.999983727932,184.00000768899918l2,-2V173.00000768899918H478.999983727932v11"></path></g></g><g id="minder_node9"><g id="node_expander8" style="cursor: pointer;"><path id="kity_path_346" fill="white" stroke="gray" d="M512.4999830909073,179.00000753253698A6,6,0,1,1,500.49998309090734,179.00000753253698A6,6,0,1,1,512.4999830909073,179.00000753253698"></path><path id="kity_path_347" fill="none" stroke="gray" d="M501.99998309090734,179.00000753253698L510.99998309090734,179.00000753253698"></path></g><path id="node_outline9" fill="none" stroke="none" d="M517.4999828450382,167.50000754371285h46a5,5,0,0,1,5,5v13a5,5,0,0,1,-5,5h-46a5,5,0,0,1,-5,-5v-13a5,5,0,0,1,5,-5z"></path><g id="node_text9" fill="black"><text id="kity_text_123" text-rendering="inherit" font-size="12" dy=".8em" y="170.700007583946" x="517.4999828450382">属性</text></g><g id="kity_g_204" style="cursor: pointer;"><path id="kity_path_205" fill="none" stroke="none" d="M549.9999821744859,170.00000754371285h12a2,2,0,0,1,2,2v13a2,2,0,0,1,-2,2h-12a2,2,0,0,1,-2,-2v-13a2,2,0,0,1,2,-2z"></path><path id="kity_path_206" fill="black" stroke="none" d="M558.9999821186066,181.00000768899918H552.9999821186066V180.00000768899918h6L558.9999821186066,181.00000768899918L558.9999821186066,181.00000768899918zM558.9999821186066,179.00000768899918H552.9999821186066V178.00000768899918h6V179.00000768899918zM558.9999821186066,177.00000768899918H552.9999821186066V176.00000768899918h6V177.00000768899918zM558.4999821186066,183.00000768899918H551.9999821186066V174.00000768899918h8v7.5M558.9999821186066,184.00000768899918l2,-2V173.00000768899918H550.9999821186066v11"></path></g></g><g id="minder_node10"><g id="node_expander6" style="cursor: pointer;" display="none"><path id="kity_path_340" fill="white" stroke="gray" d="M584.4999814815819,164.0000078678131A6,6,0,1,1,572.4999814815819,164.0000078678131A6,6,0,1,1,584.4999814815819,164.0000078678131"></path><path id="kity_path_341" fill="none" stroke="gray"></path></g><path id="node_outline7" fill="none" stroke="none" d="M589.4999812357128,152.50000787898898h201a5,5,0,0,1,5,5v13a5,5,0,0,1,-5,5h-201a5,5,0,0,1,-5,-5v-13a5,5,0,0,1,5,-5z"></path><g id="node_text7" fill="black"><text id="kity_text_119" text-rendering="inherit" font-size="12" dy=".8em" y="155.70000791922212" x="589.4999812357128">android:tint和android:tintMode</text></g><g id="kity_g_198" style="cursor: pointer;"><path id="kity_path_199" fill="none" stroke="none" d="M776.9999771006405,155.00000787898898h12a2,2,0,0,1,2,2v13a2,2,0,0,1,-2,2h-12a2,2,0,0,1,-2,-2v-13a2,2,0,0,1,2,-2z"></path><path id="kity_path_200" fill="black" stroke="none" d="M785.9999770447612,166.0000080242753H779.9999770447612V165.0000080242753h6L785.9999770447612,166.0000080242753L785.9999770447612,166.0000080242753zM785.9999770447612,164.0000080242753H779.9999770447612V163.0000080242753h6V164.0000080242753zM785.9999770447612,162.0000080242753H779.9999770447612V161.0000080242753h6V162.0000080242753zM785.4999770447612,168.0000080242753H778.9999770447612V159.0000080242753h8v7.5M785.9999770447612,169.0000080242753l2,-2V158.0000080242753H777.9999770447612v11"></path></g></g><g id="minder_node11"><g id="node_expander7" style="cursor: pointer;" display="none"><path id="kity_path_343" fill="white" stroke="gray" d="M584.4999814815819,195.00000717490911A6,6,0,1,1,572.4999814815819,195.00000717490911A6,6,0,1,1,584.4999814815819,195.00000717490911"></path><path id="kity_path_344" fill="none" stroke="gray"></path></g><path id="node_outline8" fill="none" stroke="none" d="M589.4999812357128,183.50000718608499h109a5,5,0,0,1,5,5v13a5,5,0,0,1,-5,5h-109a5,5,0,0,1,-5,-5v-13a5,5,0,0,1,5,-5z"></path><g id="node_text8" fill="black"><text id="kity_text_121" text-rendering="inherit" font-size="12" dy=".8em" y="186.70000722631812" x="589.4999812357128">android:gravity</text></g><g id="kity_g_201" style="cursor: pointer;"><path id="kity_path_202" fill="none" stroke="none" d="M684.9999791570008,186.00000718608499h12a2,2,0,0,1,2,2v13a2,2,0,0,1,-2,2h-12a2,2,0,0,1,-2,-2v-13a2,2,0,0,1,2,-2z"></path><path id="kity_path_203" fill="black" stroke="none" d="M693.9999791011214,197.0000073313713H687.9999791011214V196.0000073313713h6L693.9999791011214,197.0000073313713L693.9999791011214,197.0000073313713zM693.9999791011214,195.0000073313713H687.9999791011214V194.0000073313713h6V195.0000073313713zM693.9999791011214,193.0000073313713H687.9999791011214V192.0000073313713h6V193.0000073313713zM693.4999791011214,199.0000073313713H686.9999791011214V190.0000073313713h8v7.5M693.9999791011214,200.0000073313713l2,-2V189.0000073313713H685.9999791011214v11"></path></g></g><g id="minder_node12"><g id="node_expander10" style="cursor: pointer;" display="none"><path id="kity_path_352" fill="white" stroke="gray" d="M309.4999876283109,225.00000650435686A6,6,0,1,1,297.4999876283109,225.00000650435686A6,6,0,1,1,309.4999876283109,225.00000650435686"></path><path id="kity_path_353" fill="none" stroke="gray"></path></g><path id="node_outline11" fill="none" stroke="none" d="M314.49998738244176,213.50000651553273h216a5,5,0,0,1,5,5v13a5,5,0,0,1,-5,5h-216a5,5,0,0,1,-5,-5v-13a5,5,0,0,1,5,-5z"></path><g id="node_text11" fill="black"><text id="kity_text_127" text-rendering="inherit" font-size="12" dy=".8em" y="216.70000655576587" x="314.49998738244176">3-NinePatchDrawable(nine-patch)</text></g><g id="kity_g_210" style="cursor: pointer;"><path id="kity_path_211" fill="none" stroke="none" d="M516.9999829120934,216.00000651553273h12a2,2,0,0,1,2,2v13a2,2,0,0,1,-2,2h-12a2,2,0,0,1,-2,-2v-13a2,2,0,0,1,2,-2z"></path><path id="kity_path_212" fill="black" stroke="none" d="M525.999982856214,227.00000666081905H519.999982856214V226.00000666081905h6L525.999982856214,227.00000666081905L525.999982856214,227.00000666081905zM525.999982856214,225.00000666081905H519.999982856214V224.00000666081905h6V225.00000666081905zM525.999982856214,223.00000666081905H519.999982856214V222.00000666081905h6V223.00000666081905zM525.499982856214,229.00000666081905H518.999982856214V220.00000666081905h8v7.5M525.999982856214,230.00000666081905l2,-2V219.00000666081905H517.999982856214v11"></path></g></g><g id="minder_node13"><g id="node_expander12" style="cursor: pointer;"><path id="kity_path_358" fill="white" stroke="gray" d="M309.4999876283109,256.00000581145287A6,6,0,1,1,297.4999876283109,256.00000581145287A6,6,0,1,1,309.4999876283109,256.00000581145287"></path><path id="kity_path_359" fill="none" stroke="gray" d="M298.9999876283109,256.00000581145287L307.9999876283109,256.00000581145287"></path></g><path id="node_outline13" fill="none" stroke="none" d="M314.49998738244176,244.50000582262874h180a5,5,0,0,1,5,5v13a5,5,0,0,1,-5,5h-180a5,5,0,0,1,-5,-5v-13a5,5,0,0,1,5,-5z"></path><g id="node_text13" fill="black"><text id="kity_text_131" text-rendering="inherit" font-size="12" dy=".8em" y="247.70000586286187" x="314.49998738244176">4-GradientDrawable(shape)</text></g><g id="kity_g_216" style="cursor: pointer;"><path id="kity_path_217" fill="none" stroke="none" d="M480.9999837167561,247.00000582262874h12a2,2,0,0,1,2,2v13a2,2,0,0,1,-2,2h-12a2,2,0,0,1,-2,-2v-13a2,2,0,0,1,2,-2z"></path><path id="kity_path_218" fill="black" stroke="none" d="M489.99998366087675,258.00000596791506H483.99998366087675V257.00000596791506h6L489.99998366087675,258.00000596791506L489.99998366087675,258.00000596791506zM489.99998366087675,256.00000596791506H483.99998366087675V255.00000596791506h6V256.00000596791506zM489.99998366087675,254.00000596791506H483.99998366087675V253.00000596791506h6V254.00000596791506zM489.49998366087675,260.00000596791506H482.99998366087675V251.00000596791506h8v7.5M489.99998366087675,261.00000596791506l2,-2V250.00000596791506H481.99998366087675v11"></path></g></g><g id="minder_node14"><g id="node_expander11" style="cursor: pointer;" display="none"><path id="kity_path_355" fill="white" stroke="gray" d="M515.4999830238521,256.00000581145287A6,6,0,1,1,503.4999830238521,256.00000581145287A6,6,0,1,1,515.4999830238521,256.00000581145287"></path><path id="kity_path_356" fill="none" stroke="gray"></path></g><path id="node_outline12" fill="none" stroke="none" d="M520.499982777983,244.50000582262874h46a5,5,0,0,1,5,5v13a5,5,0,0,1,-5,5h-46a5,5,0,0,1,-5,-5v-13a5,5,0,0,1,5,-5z"></path><g id="node_text12" fill="black"><text id="kity_text_129" text-rendering="inherit" font-size="12" dy=".8em" y="247.70000586286187" x="520.499982777983">属性</text></g><g id="kity_g_213" style="cursor: pointer;"><path id="kity_path_214" fill="none" stroke="none" d="M552.9999821074307,247.00000582262874h12a2,2,0,0,1,2,2v13a2,2,0,0,1,-2,2h-12a2,2,0,0,1,-2,-2v-13a2,2,0,0,1,2,-2z"></path><path id="kity_path_215" fill="black" stroke="none" d="M561.9999820515513,258.00000596791506H555.9999820515513V257.00000596791506h6L561.9999820515513,258.00000596791506L561.9999820515513,258.00000596791506zM561.9999820515513,256.00000596791506H555.9999820515513V255.00000596791506h6V256.00000596791506zM561.9999820515513,254.00000596791506H555.9999820515513V253.00000596791506h6V254.00000596791506zM561.4999820515513,260.00000596791506H554.9999820515513V251.00000596791506h8v7.5M561.9999820515513,261.00000596791506l2,-2V250.00000596791506H553.9999820515513v11"></path></g></g><g id="minder_node15"><g id="node_expander13" style="cursor: pointer;" display="none"><path id="kity_path_361" fill="white" stroke="gray" d="M309.4999876283109,288.50000508502126A6,6,0,1,1,297.4999876283109,288.50000508502126A6,6,0,1,1,309.4999876283109,288.50000508502126"></path><path id="kity_path_362" fill="none" stroke="gray"></path></g><path id="node_outline14" fill="none" stroke="none" d="M314.4999868236482,275.50000508502126h200a5,5,0,0,1,5,5v16a5,5,0,0,1,-5,5h-200a5,5,0,0,1,-5,-5v-16a5,5,0,0,1,5,-5z" stroke-width="3"></path><g id="node_text14" fill="black"><text id="kity_text_133" text-rendering="inherit" font-size="12" dy=".8em" y="280.7000051252544" x="339.4999868236482">5-LayerDrawable(layer-list)</text></g><g id="kity_g_219" style="cursor: pointer;"><path id="kity_path_220" fill="none" stroke="none" d="M500.99998326972127,280.00000508502126h12a2,2,0,0,1,2,2v13a2,2,0,0,1,-2,2h-12a2,2,0,0,1,-2,-2v-13a2,2,0,0,1,2,-2z"></path><path id="kity_path_221" fill="black" stroke="none" d="M509.9999832138419,291.0000052303076H503.9999832138419V290.0000052303076h6L509.9999832138419,291.0000052303076L509.9999832138419,291.0000052303076zM509.9999832138419,289.0000052303076H503.9999832138419V288.0000052303076h6V289.0000052303076zM509.9999832138419,287.0000052303076H503.9999832138419V286.0000052303076h6V287.0000052303076zM509.4999832138419,293.0000052303076H502.9999832138419V284.0000052303076h8v7.5M509.9999832138419,294.0000052303076l2,-2V283.0000052303076H501.9999832138419v11"></path></g><g id="node_progress2"><path id="kity_path_468" fill="#FFED83" stroke="none" d="M333.99998714774847,289.0000050738454A9,9,0,1,1,315.99998714774847,289.0000050738454A9,9,0,1,1,333.99998714774847,289.0000050738454"></path><path id="kity_path_469" fill="#43BC00" stroke="none" d="M324.99998714774847,289.0000050738454L333.99998714774847,289.0000050738454A9,9,0,0,0,316.6850713551469,285.5558541825596A9,9,0,0,0,331.3639481784274,295.3639661045243L324.99998714774847,289.0000050738454z"></path><path id="kity_path_470" fill="#8E8E8E" stroke="none" d="M324.9999873712659,282.0000052973628c4.418,0,8,3.582,8,8h1c0,-5.523,-3.477,-10,-9,-10S315.9999873712659,284.4770052973628,315.9999873712659,290.0000052973628h1C316.9999873712659,285.5820052973628,320.5819873712659,282.0000052973628,324.9999873712659,282.0000052973628z"></path><path id="kity_path_472" fill="#EEE" stroke="none" d="M340.8119871477485,296.8960050738454l-6.75,6.75l-4.5,-4.5L331.24998714774847,297.4590050738454l2.812,2.803l5.062,-5.053L340.8119871477485,296.8960050738454z" display="none"></path><path id="kity_path_471" fill="url(#kity_linearGradient_17)" stroke="none" d="M324.9999873712659,279.0000052973628C319.47698737126586,279.0000052973628,314.9999873712659,283.4770052973628,314.9999873712659,289.0000052973628c0,5.523,4.477,10,10,10s10,-4.477,10,-10C334.9999873712659,283.4770052973628,330.5229873712659,279.0000052973628,324.9999873712659,279.0000052973628zM324.9999873712659,297.0000052973628c-4.418,0,-8,-3.582,-8,-8s3.582,-8,8,-8s8,3.582,8,8S329.4179873712659,297.0000052973628,324.9999873712659,297.0000052973628z"></path></g></g><g id="minder_node16"><g id="node_expander14" style="cursor: pointer;" display="none"><path id="kity_path_364" fill="white" stroke="gray" d="M309.4999876283109,321.00000435858965A6,6,0,1,1,297.4999876283109,321.00000435858965A6,6,0,1,1,309.4999876283109,321.00000435858965"></path><path id="kity_path_365" fill="none" stroke="gray"></path></g><path id="node_outline15" fill="none" stroke="none" d="M314.49998738244176,309.5000043697655h189a5,5,0,0,1,5,5v13a5,5,0,0,1,-5,5h-189a5,5,0,0,1,-5,-5v-13a5,5,0,0,1,5,-5z"></path><g id="node_text15" fill="black"><text id="kity_text_135" text-rendering="inherit" font-size="12" dy=".8em" y="312.70000440999866" x="314.49998738244176">6-StateListDrawable(selector)</text></g><g id="kity_g_222" style="cursor: pointer;"><path id="kity_path_223" fill="none" stroke="none" d="M489.99998351559043,312.0000043697655h12a2,2,0,0,1,2,2v13a2,2,0,0,1,-2,2h-12a2,2,0,0,1,-2,-2v-13a2,2,0,0,1,2,-2z"></path><path id="kity_path_224" fill="black" stroke="none" d="M498.9999834597111,323.00000451505184H492.9999834597111V322.00000451505184h6L498.9999834597111,323.00000451505184L498.9999834597111,323.00000451505184zM498.9999834597111,321.00000451505184H492.9999834597111V320.00000451505184h6V321.00000451505184zM498.9999834597111,319.00000451505184H492.9999834597111V318.00000451505184h6V319.00000451505184zM498.4999834597111,325.00000451505184H491.9999834597111V316.00000451505184h8v7.5M498.9999834597111,326.00000451505184l2,-2V315.00000451505184H490.9999834597111v11"></path></g></g><g id="minder_node17"><g id="node_expander15" style="cursor: pointer;" display="none"><path id="kity_path_367" fill="white" stroke="gray" d="M309.4999876283109,352.00000366568565A6,6,0,1,1,297.4999876283109,352.00000366568565A6,6,0,1,1,309.4999876283109,352.00000366568565"></path><path id="kity_path_368" fill="none" stroke="gray"></path></g><path id="node_outline16" fill="none" stroke="none" d="M314.49998738244176,340.5000036768615h192a5,5,0,0,1,5,5v13a5,5,0,0,1,-5,5h-192a5,5,0,0,1,-5,-5v-13a5,5,0,0,1,5,-5z"></path><g id="node_text16" fill="black"><text id="kity_text_137" text-rendering="inherit" font-size="12" dy=".8em" y="343.70000371709466" x="314.49998738244176">7-LevelListDrawable(level-list)</text></g><g id="kity_g_225" style="cursor: pointer;"><path id="kity_path_226" fill="none" stroke="none" d="M492.9999834485352,343.0000036768615h12a2,2,0,0,1,2,2v13a2,2,0,0,1,-2,2h-12a2,2,0,0,1,-2,-2v-13a2,2,0,0,1,2,-2z"></path><path id="kity_path_227" fill="black" stroke="none" d="M501.99998339265585,354.00000382214785H495.99998339265585V353.00000382214785h6L501.99998339265585,354.00000382214785L501.99998339265585,354.00000382214785zM501.99998339265585,352.00000382214785H495.99998339265585V351.00000382214785h6V352.00000382214785zM501.99998339265585,350.00000382214785H495.99998339265585V349.00000382214785h6V350.00000382214785zM501.49998339265585,356.00000382214785H494.99998339265585V347.00000382214785h8v7.5M501.99998339265585,357.00000382214785l2,-2V346.00000382214785H493.99998339265585v11"></path></g></g><g id="minder_node18"><g id="node_expander16" style="cursor: pointer;" display="none"><path id="kity_path_370" fill="white" stroke="gray" d="M309.4999876283109,383.00000297278166A6,6,0,1,1,297.4999876283109,383.00000297278166A6,6,0,1,1,309.4999876283109,383.00000297278166"></path><path id="kity_path_371" fill="none" stroke="gray"></path></g><path id="node_outline17" fill="none" stroke="none" d="M314.49998738244176,371.50000298395753h207a5,5,0,0,1,5,5v13a5,5,0,0,1,-5,5h-207a5,5,0,0,1,-5,-5v-13a5,5,0,0,1,5,-5z"></path><g id="node_text17" fill="black"><text id="kity_text_139" text-rendering="inherit" font-size="12" dy=".8em" y="374.70000302419066" x="314.49998738244176">8-TransitionDrawable(transition)</text></g><g id="kity_g_228" style="cursor: pointer;"><path id="kity_path_229" fill="none" stroke="none" d="M507.9999831132591,374.00000298395753h12a2,2,0,0,1,2,2v13a2,2,0,0,1,-2,2h-12a2,2,0,0,1,-2,-2v-13a2,2,0,0,1,2,-2z"></path><path id="kity_path_230" fill="black" stroke="none" d="M516.9999830573797,385.00000312924385H510.9999830573797V384.00000312924385h6L516.9999830573797,385.00000312924385L516.9999830573797,385.00000312924385zM516.9999830573797,383.00000312924385H510.9999830573797V382.00000312924385h6V383.00000312924385zM516.9999830573797,381.00000312924385H510.9999830573797V380.00000312924385h6V381.00000312924385zM516.4999830573797,387.00000312924385H509.9999830573797V378.00000312924385h8v7.5M516.9999830573797,388.00000312924385l2,-2V377.00000312924385H508.9999830573797v11"></path></g></g><g id="minder_node19"><g id="node_expander17" style="cursor: pointer;" display="none"><path id="kity_path_373" fill="white" stroke="gray" d="M309.4999876283109,414.00000227987766A6,6,0,1,1,297.4999876283109,414.00000227987766A6,6,0,1,1,309.4999876283109,414.00000227987766"></path><path id="kity_path_374" fill="none" stroke="gray"></path></g><path id="node_outline18" fill="none" stroke="none" d="M314.49998738244176,402.50000229105353h150a5,5,0,0,1,5,5v13a5,5,0,0,1,-5,5h-150a5,5,0,0,1,-5,-5v-13a5,5,0,0,1,5,-5z"></path><g id="node_text18" fill="black"><text id="kity_text_141" text-rendering="inherit" font-size="12" dy=".8em" y="405.70000233128667" x="314.49998738244176">9-InsetDrawable(inset)</text></g><g id="kity_g_231" style="cursor: pointer;"><path id="kity_path_232" fill="none" stroke="none" d="M450.99998438730836,405.00000229105353h12a2,2,0,0,1,2,2v13a2,2,0,0,1,-2,2h-12a2,2,0,0,1,-2,-2v-13a2,2,0,0,1,2,-2z"></path><path id="kity_path_233" fill="black" stroke="none" d="M459.999984331429,416.00000243633986H453.999984331429V415.00000243633986h6L459.999984331429,416.00000243633986L459.999984331429,416.00000243633986zM459.999984331429,414.00000243633986H453.999984331429V413.00000243633986h6V414.00000243633986zM459.999984331429,412.00000243633986H453.999984331429V411.00000243633986h6V412.00000243633986zM459.499984331429,418.00000243633986H452.999984331429V409.00000243633986h8v7.5M459.999984331429,419.00000243633986l2,-2V408.00000243633986H451.999984331429v11"></path></g></g><g id="minder_node20"><g id="node_expander18" style="cursor: pointer;" display="none"><path id="kity_path_376" fill="white" stroke="gray" d="M309.4999876283109,445.00000158697367A6,6,0,1,1,297.4999876283109,445.00000158697367A6,6,0,1,1,309.4999876283109,445.00000158697367"></path><path id="kity_path_377" fill="none" stroke="gray"></path></g><path id="node_outline19" fill="none" stroke="none" d="M314.49998738244176,433.50000159814954h160a5,5,0,0,1,5,5v13a5,5,0,0,1,-5,5h-160a5,5,0,0,1,-5,-5v-13a5,5,0,0,1,5,-5z"></path><g id="node_text19" fill="black"><text id="kity_text_143" text-rendering="inherit" font-size="12" dy=".8em" y="436.7000016383827" x="314.49998738244176">10-ScaleDrawable(scale)</text></g><g id="kity_g_234" style="cursor: pointer;"><path id="kity_path_235" fill="none" stroke="none" d="M460.99998416379094,436.00000159814954h12a2,2,0,0,1,2,2v13a2,2,0,0,1,-2,2h-12a2,2,0,0,1,-2,-2v-13a2,2,0,0,1,2,-2z"></path><path id="kity_path_236" fill="black" stroke="none" d="M469.9999841079116,447.00000174343586H463.9999841079116V446.00000174343586h6L469.9999841079116,447.00000174343586L469.9999841079116,447.00000174343586zM469.9999841079116,445.00000174343586H463.9999841079116V444.00000174343586h6V445.00000174343586zM469.9999841079116,443.00000174343586H463.9999841079116V442.00000174343586h6V443.00000174343586zM469.4999841079116,449.00000174343586H462.9999841079116V440.00000174343586h8v7.5M469.9999841079116,450.00000174343586l2,-2V439.00000174343586H461.9999841079116v11"></path></g></g><g id="minder_node21"><g id="node_expander20" style="cursor: pointer;"><path id="kity_path_382" fill="white" stroke="gray" d="M309.4999876283109,476.0000008940697A6,6,0,1,1,297.4999876283109,476.0000008940697A6,6,0,1,1,309.4999876283109,476.0000008940697"></path><path id="kity_path_383" fill="none" stroke="gray" d="M298.9999876283109,476.0000008940697L307.9999876283109,476.0000008940697"></path></g><path id="node_outline21" fill="none" stroke="none" d="M314.49998738244176,464.50000090524554h144a5,5,0,0,1,5,5v13a5,5,0,0,1,-5,5h-144a5,5,0,0,1,-5,-5v-13a5,5,0,0,1,5,-5z"></path><g id="node_text21" fill="black"><text id="kity_text_147" text-rendering="inherit" font-size="12" dy=".8em" y="467.7000009454787" x="314.49998738244176">11-ClipDrawable(clip)</text></g><g id="kity_g_240" style="cursor: pointer;"><path id="kity_path_241" fill="none" stroke="none" d="M444.9999845214188,467.00000090524554h12a2,2,0,0,1,2,2v13a2,2,0,0,1,-2,2h-12a2,2,0,0,1,-2,-2v-13a2,2,0,0,1,2,-2z"></path><path id="kity_path_242" fill="black" stroke="none" d="M453.99998446553946,478.00000105053186H447.99998446553946V477.00000105053186h6L453.99998446553946,478.00000105053186L453.99998446553946,478.00000105053186zM453.99998446553946,476.00000105053186H447.99998446553946V475.00000105053186h6V476.00000105053186zM453.99998446553946,474.00000105053186H447.99998446553946V473.00000105053186h6V474.00000105053186zM453.49998446553946,480.00000105053186H446.99998446553946V471.00000105053186h8v7.5M453.99998446553946,481.00000105053186l2,-2V470.00000105053186H445.99998446553946v11"></path></g></g><g id="minder_node22"><g id="node_expander19" style="cursor: pointer;" display="none"><path id="kity_path_379" fill="white" stroke="gray" d="M479.4999838285148,476.0000008940697A6,6,0,1,1,467.4999838285148,476.0000008940697A6,6,0,1,1,479.4999838285148,476.0000008940697"></path><path id="kity_path_380" fill="none" stroke="gray"></path></g><path id="node_outline20" fill="none" stroke="none" d="M484.49998358264565,464.50000090524554h85a5,5,0,0,1,5,5v13a5,5,0,0,1,-5,5h-85a5,5,0,0,1,-5,-5v-13a5,5,0,0,1,5,-5z"></path><g id="node_text20" fill="black"><text id="kity_text_145" text-rendering="inherit" font-size="12" dy=".8em" y="467.7000009454787" x="484.49998358264565">gravity属性</text></g><g id="kity_g_237" style="cursor: pointer;"><path id="kity_path_238" fill="none" stroke="none" d="M555.9999820403755,467.00000090524554h12a2,2,0,0,1,2,2v13a2,2,0,0,1,-2,2h-12a2,2,0,0,1,-2,-2v-13a2,2,0,0,1,2,-2z"></path><path id="kity_path_239" fill="black" stroke="none" d="M564.9999819844961,478.00000105053186H558.9999819844961V477.00000105053186h6L564.9999819844961,478.00000105053186L564.9999819844961,478.00000105053186zM564.9999819844961,476.00000105053186H558.9999819844961V475.00000105053186h6V476.00000105053186zM564.9999819844961,474.00000105053186H558.9999819844961V473.00000105053186h6V474.00000105053186zM564.4999819844961,480.00000105053186H557.9999819844961V471.00000105053186h8v7.5M564.9999819844961,481.00000105053186l2,-2V470.00000105053186H556.9999819844961v11"></path></g></g><g id="minder_node23"><g id="node_expander21" style="cursor: pointer;" display="none"><path id="kity_path_385" fill="white" stroke="gray" d="M309.4999876283109,507.0000002011657A6,6,0,1,1,297.4999876283109,507.0000002011657A6,6,0,1,1,309.4999876283109,507.0000002011657"></path><path id="kity_path_386" fill="none" stroke="gray"></path></g><path id="node_outline22" fill="none" stroke="none" d="M314.49998738244176,495.50000021234155h175a5,5,0,0,1,5,5v13a5,5,0,0,1,-5,5h-175a5,5,0,0,1,-5,-5v-13a5,5,0,0,1,5,-5z"></path><g id="node_text22" fill="black"><text id="kity_text_149" text-rendering="inherit" font-size="12" dy=".8em" y="498.7000002525747" x="314.49998738244176">12-RotateDrawable(rotate)</text></g><g id="kity_g_243" style="cursor: pointer;"><path id="kity_path_244" fill="none" stroke="none" d="M475.9999838285148,498.00000021234155h12a2,2,0,0,1,2,2v13a2,2,0,0,1,-2,2h-12a2,2,0,0,1,-2,-2v-13a2,2,0,0,1,2,-2z"></path><path id="kity_path_245" fill="black" stroke="none" d="M484.99998377263546,509.00000035762787H478.99998377263546V508.00000035762787h6L484.99998377263546,509.00000035762787L484.99998377263546,509.00000035762787zM484.99998377263546,507.00000035762787H478.99998377263546V506.00000035762787h6V507.00000035762787zM484.99998377263546,505.00000035762787H478.99998377263546V504.00000035762787h6V505.00000035762787zM484.49998377263546,511.00000035762787H477.99998377263546V502.00000035762787h8v7.5M484.99998377263546,512.0000003576279l2,-2V501.00000035762787H476.99998377263546v11"></path></g></g><g id="minder_node24"><g id="node_expander23" style="cursor: pointer;"><path id="kity_path_391" fill="white" stroke="gray" d="M309.4999876283109,539.4999994747341A6,6,0,1,1,297.4999876283109,539.4999994747341A6,6,0,1,1,309.4999876283109,539.4999994747341"></path><path id="kity_path_392" fill="none" stroke="gray" d="M298.9999876283109,539.4999994747341L307.9999876283109,539.4999994747341"></path></g><path id="node_outline24" fill="none" stroke="none" d="M314.4999868236482,526.4999994747341h266a5,5,0,0,1,5,5v16a5,5,0,0,1,-5,5h-266a5,5,0,0,1,-5,-5v-16a5,5,0,0,1,5,-5z" stroke-width="3"></path><g id="node_text24" fill="black"><text id="kity_text_153" text-rendering="inherit" font-size="12" dy=".8em" y="531.6999995149672" x="339.4999868236482">13-AnimationDrawable(animation-list)</text></g><g id="kity_g_249" style="cursor: pointer;"><path id="kity_path_250" fill="none" stroke="none" d="M566.9999817945063,530.9999994747341h12a2,2,0,0,1,2,2v13a2,2,0,0,1,-2,2h-12a2,2,0,0,1,-2,-2v-13a2,2,0,0,1,2,-2z"></path><path id="kity_path_251" fill="black" stroke="none" d="M575.999981738627,541.9999996200204H569.999981738627V540.9999996200204h6L575.999981738627,541.9999996200204L575.999981738627,541.9999996200204zM575.999981738627,539.9999996200204H569.999981738627V538.9999996200204h6V539.9999996200204zM575.999981738627,537.9999996200204H569.999981738627V536.9999996200204h6V537.9999996200204zM575.499981738627,543.9999996200204H568.999981738627V534.9999996200204h8v7.5M575.999981738627,544.9999996200204l2,-2V533.9999996200204H567.999981738627v11"></path></g><g id="node_progress1"><path id="kity_path_462" fill="#FFED83" stroke="none" d="M333.99998714774847,539.9999994635582A9,9,0,1,1,315.99998714774847,539.9999994635582A9,9,0,1,1,333.99998714774847,539.9999994635582"></path><path id="kity_path_463" fill="#43BC00" stroke="none" d="M324.99998714774847,539.9999994635582L333.99998714774847,539.9999994635582A9,9,0,0,0,316.6850713551469,536.5558485722723A9,9,0,0,0,331.3639481784274,546.3639604942372L324.99998714774847,539.9999994635582z"></path><path id="kity_path_464" fill="#8E8E8E" stroke="none" d="M324.9999873712659,532.9999996870756c4.418,0,8,3.582,8,8h1c0,-5.523,-3.477,-10,-9,-10S315.9999873712659,535.4769996870756,315.9999873712659,540.9999996870756h1C316.9999873712659,536.5819996870756,320.5819873712659,532.9999996870756,324.9999873712659,532.9999996870756z"></path><path id="kity_path_466" fill="#EEE" stroke="none" d="M340.8119871477485,547.8959994635582l-6.75,6.75l-4.5,-4.5L331.24998714774847,548.4589994635581l2.812,2.803l5.062,-5.053L340.8119871477485,547.8959994635582z" display="none"></path><path id="kity_path_465" fill="url(#kity_linearGradient_17)" stroke="none" d="M324.9999873712659,529.9999996870756C319.47698737126586,529.9999996870756,314.9999873712659,534.4769996870756,314.9999873712659,539.9999996870756c0,5.523,4.477,10,10,10s10,-4.477,10,-10C334.9999873712659,534.4769996870756,330.5229873712659,529.9999996870756,324.9999873712659,529.9999996870756zM324.9999873712659,547.9999996870756c-4.418,0,-8,-3.582,-8,-8s3.582,-8,8,-8s8,3.582,8,8S329.4179873712659,547.9999996870756,324.9999873712659,547.9999996870756z"></path></g></g><g id="minder_node25"><g id="node_expander22" style="cursor: pointer;" display="none"><path id="kity_path_388" fill="white" stroke="gray" d="M601.4999811016023,539.9999994635582A6,6,0,1,1,589.4999811016023,539.9999994635582A6,6,0,1,1,601.4999811016023,539.9999994635582"></path><path id="kity_path_389" fill="none" stroke="gray"></path></g><path id="node_outline23" fill="none" stroke="none" d="M606.4999808557332,528.4999994747341h46a5,5,0,0,1,5,5v13a5,5,0,0,1,-5,5h-46a5,5,0,0,1,-5,-5v-13a5,5,0,0,1,5,-5z"></path><g id="node_text23" fill="black"><text id="kity_text_151" text-rendering="inherit" font-size="12" dy=".8em" y="531.6999995149672" x="606.4999808557332">属性</text></g><g id="kity_g_246" style="cursor: pointer;"><path id="kity_path_247" fill="none" stroke="none" d="M638.9999801851809,530.9999994747341h12a2,2,0,0,1,2,2v13a2,2,0,0,1,-2,2h-12a2,2,0,0,1,-2,-2v-13a2,2,0,0,1,2,-2z"></path><path id="kity_path_248" fill="black" stroke="none" d="M647.9999801293015,541.9999996200204H641.9999801293015V540.9999996200204h6L647.9999801293015,541.9999996200204L647.9999801293015,541.9999996200204zM647.9999801293015,539.9999996200204H641.9999801293015V538.9999996200204h6V539.9999996200204zM647.9999801293015,537.9999996200204H641.9999801293015V536.9999996200204h6V537.9999996200204zM647.4999801293015,543.9999996200204H640.9999801293015V534.9999996200204h8v7.5M647.9999801293015,544.9999996200204l2,-2V533.9999996200204H639.9999801293015v11"></path></g></g><g id="minder_node26"><g id="node_expander32" style="cursor: pointer;"><path id="kity_path_418" fill="white" stroke="gray" d="M309.4999876283109,664.9999966695905A6,6,0,1,1,297.4999876283109,664.9999966695905A6,6,0,1,1,309.4999876283109,664.9999966695905"></path><path id="kity_path_419" fill="none" stroke="gray" d="M298.9999876283109,664.9999966695905L307.9999876283109,664.9999966695905"></path></g><path id="node_outline33" fill="none" stroke="none" d="M314.49998738244176,653.4999966807663h174a5,5,0,0,1,5,5v13a5,5,0,0,1,-5,5h-174a5,5,0,0,1,-5,-5v-13a5,5,0,0,1,5,-5z"></path><g id="node_text33" fill="black"><text id="kity_text_171" text-rendering="inherit" font-size="12" dy=".8em" y="656.6999967209995" x="314.49998738244176">14-ShapeDrawable(无标签)</text></g><g id="kity_g_276" style="cursor: pointer;"><path id="kity_path_277" fill="none" stroke="none" d="M474.99998385086656,655.9999966807663h12a2,2,0,0,1,2,2v13a2,2,0,0,1,-2,2h-12a2,2,0,0,1,-2,-2v-13a2,2,0,0,1,2,-2z"></path><path id="kity_path_278" fill="black" stroke="none" d="M483.9999837949872,666.9999968260527H477.9999837949872V665.9999968260527h6L483.9999837949872,666.9999968260527L483.9999837949872,666.9999968260527zM483.9999837949872,664.9999968260527H477.9999837949872V663.9999968260527h6V664.9999968260527zM483.9999837949872,662.9999968260527H477.9999837949872V661.9999968260527h6V662.9999968260527zM483.4999837949872,668.9999968260527H476.9999837949872V659.9999968260527h8v7.5M483.9999837949872,669.9999968260527l2,-2V658.9999968260527H475.9999837949872v11"></path></g></g><g id="minder_node27"><g id="node_expander27" style="cursor: pointer;"><path id="kity_path_403" fill="white" stroke="gray" d="M509.49998315796256,602.9999980553985A6,6,0,1,1,497.49998315796256,602.9999980553985A6,6,0,1,1,509.49998315796256,602.9999980553985"></path><path id="kity_path_404" fill="none" stroke="gray" d="M498.99998315796256,602.9999980553985L507.99998315796256,602.9999980553985"></path></g><path id="node_outline28" fill="none" stroke="none" d="M514.4999829120934,591.4999980665743h94a5,5,0,0,1,5,5v13a5,5,0,0,1,-5,5h-94a5,5,0,0,1,-5,-5v-13a5,5,0,0,1,5,-5z"></path><g id="node_text28" fill="black"><text id="kity_text_161" text-rendering="inherit" font-size="12" dy=".8em" y="594.6999981068075" x="514.4999829120934">1-RectShape</text></g><g id="kity_g_261" style="cursor: pointer;"><path id="kity_path_262" fill="none" stroke="none" d="M594.9999811686575,593.9999980665743h12a2,2,0,0,1,2,2v13a2,2,0,0,1,-2,2h-12a2,2,0,0,1,-2,-2v-13a2,2,0,0,1,2,-2z"></path><path id="kity_path_263" fill="black" stroke="none" d="M603.9999811127782,604.9999982118607H597.9999811127782V603.9999982118607h6L603.9999811127782,604.9999982118607L603.9999811127782,604.9999982118607zM603.9999811127782,602.9999982118607H597.9999811127782V601.9999982118607h6V602.9999982118607zM603.9999811127782,600.9999982118607H597.9999811127782V599.9999982118607h6V600.9999982118607zM603.4999811127782,606.9999982118607H596.9999811127782V597.9999982118607h8v7.5M603.9999811127782,607.9999982118607l2,-2V596.9999982118607H595.9999811127782v11"></path></g></g><g id="minder_node28"><g id="node_expander24" style="cursor: pointer;" display="none"><path id="kity_path_394" fill="white" stroke="gray" d="M629.4999804757535,571.9999987483025A6,6,0,1,1,617.4999804757535,571.9999987483025A6,6,0,1,1,629.4999804757535,571.9999987483025"></path><path id="kity_path_395" fill="none" stroke="gray"></path></g><path id="node_outline25" fill="none" stroke="none" d="M634.4999802298844,560.4999987594783h83a5,5,0,0,1,5,5v13a5,5,0,0,1,-5,5h-83a5,5,0,0,1,-5,-5v-13a5,5,0,0,1,5,-5z"></path><g id="node_text25" fill="black"><text id="kity_text_155" text-rendering="inherit" font-size="12" dy=".8em" y="563.6999987997115" x="634.4999802298844">OvalShape</text></g><g id="kity_g_252" style="cursor: pointer;"><path id="kity_path_253" fill="none" stroke="none" d="M703.9999787323177,562.9999987594783h12a2,2,0,0,1,2,2v13a2,2,0,0,1,-2,2h-12a2,2,0,0,1,-2,-2v-13a2,2,0,0,1,2,-2z"></path><path id="kity_path_254" fill="black" stroke="none" d="M712.9999786764383,573.9999989047647H706.9999786764383V572.9999989047647h6L712.9999786764383,573.9999989047647L712.9999786764383,573.9999989047647zM712.9999786764383,571.9999989047647H706.9999786764383V570.9999989047647h6V571.9999989047647zM712.9999786764383,569.9999989047647H706.9999786764383V568.9999989047647h6V569.9999989047647zM712.4999786764383,575.9999989047647H705.9999786764383V566.9999989047647h8v7.5M712.9999786764383,576.9999989047647l2,-2V565.9999989047647H704.9999786764383v11"></path></g></g><g id="minder_node29"><g id="node_expander25" style="cursor: pointer;" display="none"><path id="kity_path_397" fill="white" stroke="gray" d="M629.4999804757535,602.9999980553985A6,6,0,1,1,617.4999804757535,602.9999980553985A6,6,0,1,1,629.4999804757535,602.9999980553985"></path><path id="kity_path_398" fill="none" stroke="gray"></path></g><path id="node_outline26" fill="none" stroke="none" d="M634.4999802298844,591.4999980665743h76a5,5,0,0,1,5,5v13a5,5,0,0,1,-5,5h-76a5,5,0,0,1,-5,-5v-13a5,5,0,0,1,5,-5z"></path><g id="node_text26" fill="black"><text id="kity_text_157" text-rendering="inherit" font-size="12" dy=".8em" y="594.6999981068075" x="634.4999802298844">ArcShape</text></g><g id="kity_g_255" style="cursor: pointer;"><path id="kity_path_256" fill="none" stroke="none" d="M696.9999788887799,593.9999980665743h12a2,2,0,0,1,2,2v13a2,2,0,0,1,-2,2h-12a2,2,0,0,1,-2,-2v-13a2,2,0,0,1,2,-2z"></path><path id="kity_path_257" fill="black" stroke="none" d="M705.9999788329005,604.9999982118607H699.9999788329005V603.9999982118607h6L705.9999788329005,604.9999982118607L705.9999788329005,604.9999982118607zM705.9999788329005,602.9999982118607H699.9999788329005V601.9999982118607h6V602.9999982118607zM705.9999788329005,600.9999982118607H699.9999788329005V599.9999982118607h6V600.9999982118607zM705.4999788329005,606.9999982118607H698.9999788329005V597.9999982118607h8v7.5M705.9999788329005,607.9999982118607l2,-2V596.9999982118607H697.9999788329005v11"></path></g></g><g id="minder_node30"><g id="node_expander26" style="cursor: pointer;" display="none"><path id="kity_path_400" fill="white" stroke="gray" d="M629.4999804757535,633.9999973624945A6,6,0,1,1,617.4999804757535,633.9999973624945A6,6,0,1,1,629.4999804757535,633.9999973624945"></path><path id="kity_path_401" fill="none" stroke="gray"></path></g><path id="node_outline27" fill="none" stroke="none" d="M634.4999802298844,622.4999973736703h120a5,5,0,0,1,5,5v13a5,5,0,0,1,-5,5h-120a5,5,0,0,1,-5,-5v-13a5,5,0,0,1,5,-5z"></path><g id="node_text27" fill="black"><text id="kity_text_159" text-rendering="inherit" font-size="12" dy=".8em" y="625.6999974139035" x="634.4999802298844">RoundRectShape</text></g><g id="kity_g_258" style="cursor: pointer;"><path id="kity_path_259" fill="none" stroke="none" d="M740.9999779053032,624.9999973736703h12a2,2,0,0,1,2,2v13a2,2,0,0,1,-2,2h-12a2,2,0,0,1,-2,-2v-13a2,2,0,0,1,2,-2z"></path><path id="kity_path_260" fill="black" stroke="none" d="M749.9999778494239,635.9999975189567H743.9999778494239V634.9999975189567h6L749.9999778494239,635.9999975189567L749.9999778494239,635.9999975189567zM749.9999778494239,633.9999975189567H743.9999778494239V632.9999975189567h6V633.9999975189567zM749.9999778494239,631.9999975189567H743.9999778494239V630.9999975189567h6V631.9999975189567zM749.4999778494239,637.9999975189567H742.9999778494239V628.9999975189567h8v7.5M749.9999778494239,638.9999975189567l2,-2V627.9999975189567H741.9999778494239v11"></path></g></g><g id="minder_node31"><g id="node_expander29" style="cursor: pointer;"><path id="kity_path_409" fill="white" stroke="gray" d="M509.49998315796256,664.9999966695905A6,6,0,1,1,497.49998315796256,664.9999966695905A6,6,0,1,1,509.49998315796256,664.9999966695905"></path><path id="kity_path_410" fill="none" stroke="gray" d="M498.99998315796256,664.9999966695905L507.99998315796256,664.9999966695905"></path></g><path id="node_outline30" fill="none" stroke="none" d="M514.4999829120934,653.4999966807663h95a5,5,0,0,1,5,5v13a5,5,0,0,1,-5,5h-95a5,5,0,0,1,-5,-5v-13a5,5,0,0,1,5,-5z"></path><g id="node_text30" fill="black"><text id="kity_text_165" text-rendering="inherit" font-size="12" dy=".8em" y="656.6999967209995" x="514.4999829120934">2-PathShape</text></g><g id="kity_g_267" style="cursor: pointer;"><path id="kity_path_268" fill="none" stroke="none" d="M595.9999811463058,655.9999966807663h12a2,2,0,0,1,2,2v13a2,2,0,0,1,-2,2h-12a2,2,0,0,1,-2,-2v-13a2,2,0,0,1,2,-2z"></path><path id="kity_path_269" fill="black" stroke="none" d="M604.9999810904264,666.9999968260527H598.9999810904264V665.9999968260527h6L604.9999810904264,666.9999968260527L604.9999810904264,666.9999968260527zM604.9999810904264,664.9999968260527H598.9999810904264V663.9999968260527h6V664.9999968260527zM604.9999810904264,662.9999968260527H598.9999810904264V661.9999968260527h6V662.9999968260527zM604.4999810904264,668.9999968260527H597.9999810904264V659.9999968260527h8v7.5M604.9999810904264,669.9999968260527l2,-2V658.9999968260527H596.9999810904264v11"></path></g></g><g id="minder_node32"><g id="node_expander28" style="cursor: pointer;" display="none"><path id="kity_path_406" fill="white" stroke="gray" d="M630.4999804534018,664.9999966695905A6,6,0,1,1,618.4999804534018,664.9999966695905A6,6,0,1,1,630.4999804534018,664.9999966695905"></path><path id="kity_path_407" fill="none" stroke="gray"></path></g><path id="node_outline29" fill="none" stroke="none" d="M635.4999802075326,653.4999966807663h106a5,5,0,0,1,5,5v13a5,5,0,0,1,-5,5h-106a5,5,0,0,1,-5,-5v-13a5,5,0,0,1,5,-5z"></path><g id="node_text29" fill="black"><text id="kity_text_163" text-rendering="inherit" font-size="12" dy=".8em" y="656.6999967209995" x="635.4999802075326">标准宽高的作用</text></g><g id="kity_g_264" style="cursor: pointer;"><path id="kity_path_265" fill="none" stroke="none" d="M727.9999781958759,655.9999966807663h12a2,2,0,0,1,2,2v13a2,2,0,0,1,-2,2h-12a2,2,0,0,1,-2,-2v-13a2,2,0,0,1,2,-2z"></path><path id="kity_path_266" fill="black" stroke="none" d="M736.9999781399965,666.9999968260527H730.9999781399965V665.9999968260527h6L736.9999781399965,666.9999968260527L736.9999781399965,666.9999968260527zM736.9999781399965,664.9999968260527H730.9999781399965V663.9999968260527h6V664.9999968260527zM736.9999781399965,662.9999968260527H730.9999781399965V661.9999968260527h6V662.9999968260527zM736.4999781399965,668.9999968260527H729.9999781399965V659.9999968260527h8v7.5M736.9999781399965,669.9999968260527l2,-2V658.9999968260527H728.9999781399965v11"></path></g></g><g id="minder_node33"><g id="node_expander30" style="cursor: pointer;" display="none"><path id="kity_path_412" fill="white" stroke="gray" d="M509.49998315796256,695.9999959766865A6,6,0,1,1,497.49998315796256,695.9999959766865A6,6,0,1,1,509.49998315796256,695.9999959766865"></path><path id="kity_path_413" fill="none" stroke="gray"></path></g><path id="node_outline31" fill="none" stroke="none" d="M514.4999829120934,684.4999959878623h117a5,5,0,0,1,5,5v13a5,5,0,0,1,-5,5h-117a5,5,0,0,1,-5,-5v-13a5,5,0,0,1,5,-5z"></path><g id="node_text31" fill="black"><text id="kity_text_167" text-rendering="inherit" font-size="12" dy=".8em" y="687.6999960280955" x="514.4999829120934">3-PaintDrawable</text></g><g id="kity_g_270" style="cursor: pointer;"><path id="kity_path_271" fill="none" stroke="none" d="M617.9999806545675,686.9999959878623h12a2,2,0,0,1,2,2v13a2,2,0,0,1,-2,2h-12a2,2,0,0,1,-2,-2v-13a2,2,0,0,1,2,-2z"></path><path id="kity_path_272" fill="black" stroke="none" d="M626.9999805986881,697.9999961331487H620.9999805986881V696.9999961331487h6L626.9999805986881,697.9999961331487L626.9999805986881,697.9999961331487zM626.9999805986881,695.9999961331487H620.9999805986881V694.9999961331487h6V695.9999961331487zM626.9999805986881,693.9999961331487H620.9999805986881V692.9999961331487h6V693.9999961331487zM626.4999805986881,699.9999961331487H619.9999805986881V690.9999961331487h8v7.5M626.9999805986881,700.9999961331487l2,-2V689.9999961331487H618.9999805986881v11"></path></g></g><g id="minder_node34"><g id="node_expander31" style="cursor: pointer;" display="none"><path id="kity_path_415" fill="white" stroke="gray" d="M509.49998315796256,726.9999952837825A6,6,0,1,1,497.49998315796256,726.9999952837825A6,6,0,1,1,509.49998315796256,726.9999952837825"></path><path id="kity_path_416" fill="none" stroke="gray"></path></g><path id="node_outline32" fill="none" stroke="none" d="M514.4999829120934,715.4999952949584h235a5,5,0,0,1,5,5v13a5,5,0,0,1,-5,5h-235a5,5,0,0,1,-5,-5v-13a5,5,0,0,1,5,-5z"></path><g id="node_text32" fill="black"><text id="kity_text_169" text-rendering="inherit" font-size="12" dy=".8em" y="718.6999953351915" x="514.4999829120934">ShapeDrawable如何与Bitmap相结合？</text></g><g id="kity_g_273" style="cursor: pointer;"><path id="kity_path_274" fill="none" stroke="none" d="M735.999978017062,717.9999952949584h12a2,2,0,0,1,2,2v13a2,2,0,0,1,-2,2h-12a2,2,0,0,1,-2,-2v-13a2,2,0,0,1,2,-2z"></path><path id="kity_path_275" fill="black" stroke="none" d="M744.9999779611826,728.9999954402447H738.9999779611826V727.9999954402447h6L744.9999779611826,728.9999954402447L744.9999779611826,728.9999954402447zM744.9999779611826,726.9999954402447H738.9999779611826V725.9999954402447h6V726.9999954402447zM744.9999779611826,724.9999954402447H738.9999779611826V723.9999954402447h6V724.9999954402447zM744.4999779611826,730.9999954402447H737.9999779611826V721.9999954402447h8v7.5M744.9999779611826,731.9999954402447l2,-2V720.9999954402447H736.9999779611826v11"></path></g></g><g id="minder_node35"><g id="node_expander33" style="cursor: pointer;" display="none"><path id="kity_path_421" fill="white" stroke="gray" d="M309.4999876283109,759.4999945573509A6,6,0,1,1,297.4999876283109,759.4999945573509A6,6,0,1,1,309.4999876283109,759.4999945573509"></path><path id="kity_path_422" fill="none" stroke="gray"></path></g><path id="node_outline34" fill="none" stroke="none" d="M314.4999868236482,746.4999945573509h135a5,5,0,0,1,5,5v16a5,5,0,0,1,-5,5h-135a5,5,0,0,1,-5,-5v-16a5,5,0,0,1,5,-5z" stroke-width="3"></path><g id="node_text34" fill="black"><text id="kity_text_173" text-rendering="inherit" font-size="12" dy=".8em" y="751.699994597584" x="339.4999868236482">15-RippleDrawable</text></g><g id="node_priority1"><path id="kity_path_443" fill="#840023" stroke="none" d="M314.9999873712659,762.9999947696924c0,3.866,3.134,7,7,7h6c3.866,0,7,-3.134,7,-7V756.9999947696924H314.9999873712659V762.9999947696924z"></path><path id="kity_path_444" fill="#FF1200" stroke="none" d="M334.9999873712659,759.9999947696924c0,3.866,-3.134,7,-7,7H321.9999873712659c-3.866,0,-7,-3.134,-7,-7V756.9999947696924c0,-3.866,3.134,-7,7,-7h6c3.866,0,7,3.134,7,7V759.9999947696924z" opacity="0.8"></path><text id="kity_text_445" text-rendering="geometricPrecision" x="323.99998738244176" y="759.4999947808683" text-anchor="middle" font-style="italic" font-size="12" fill="white" dy="5">1</text></g></g><g id="minder_node36"><g id="node_expander37" style="cursor: pointer;"><path id="kity_path_433" fill="white" stroke="gray" d="M309.4999876283109,827.4999930374324A6,6,0,1,1,297.4999876283109,827.4999930374324A6,6,0,1,1,309.4999876283109,827.4999930374324"></path><path id="kity_path_434" fill="none" stroke="gray" d="M298.9999876283109,827.4999930374324L307.9999876283109,827.4999930374324"></path></g><path id="node_outline38" fill="none" stroke="none" d="M314.49998738244176,818.4999930374324h60a5,5,0,0,1,5,5v8a5,5,0,0,1,-5,5h-60a5,5,0,0,1,-5,-5v-8a5,5,0,0,1,5,-5z"></path><g id="node_text38" fill="black"><text id="kity_text_181" text-rendering="inherit" font-size="12" dy=".8em" y="819.6999930776656" x="314.49998738244176">SVG矢量图</text></g></g><g id="minder_node37"><g id="node_expander34" style="cursor: pointer;" display="none"><path id="kity_path_424" fill="white" stroke="gray" d="M395.4999857060611,793.4999937973917A6,6,0,1,1,383.4999857060611,793.4999937973917A6,6,0,1,1,395.4999857060611,793.4999937973917"></path><path id="kity_path_425" fill="none" stroke="gray"></path></g><path id="node_outline35" fill="none" stroke="none" d="M400.4999849013984,780.4999937973917h136a5,5,0,0,1,5,5v16a5,5,0,0,1,-5,5h-136a5,5,0,0,1,-5,-5v-16a5,5,0,0,1,5,-5z" stroke-width="3"></path><g id="node_text35" fill="black"><text id="kity_text_175" text-rendering="inherit" font-size="12" dy=".8em" y="785.6999938376248" x="425.4999849013984">16-VectorDrawable</text></g><g id="node_priority2"><path id="kity_path_448" fill="#01467F" stroke="none" d="M400.9999854490161,796.9999940097332c0,3.866,3.134,7,7,7h6c3.866,0,7,-3.134,7,-7V790.9999940097332H400.9999854490161V796.9999940097332z"></path><path id="kity_path_449" fill="#0074FF" stroke="none" d="M420.9999854490161,793.9999940097332c0,3.866,-3.134,7,-7,7H407.9999854490161c-3.866,0,-7,-3.134,-7,-7V790.9999940097332c0,-3.866,3.134,-7,7,-7h6c3.866,0,7,3.134,7,7V793.9999940097332z" opacity="0.8"></path><text id="kity_text_450" text-rendering="geometricPrecision" x="409.99998546019197" y="793.4999940209091" text-anchor="middle" font-style="italic" font-size="12" fill="white" dy="5">2</text></g></g><g id="minder_node38"><g id="node_expander35" style="cursor: pointer;" display="none"><path id="kity_path_427" fill="white" stroke="gray" d="M395.4999857060611,827.4999930374324A6,6,0,1,1,383.4999857060611,827.4999930374324A6,6,0,1,1,395.4999857060611,827.4999930374324"></path><path id="kity_path_428" fill="none" stroke="gray"></path></g><path id="node_outline36" fill="none" stroke="none" d="M400.4999849013984,814.4999930374324h192a5,5,0,0,1,5,5v16a5,5,0,0,1,-5,5h-192a5,5,0,0,1,-5,-5v-16a5,5,0,0,1,5,-5z" stroke-width="3"></path><g id="node_text36" fill="black"><text id="kity_text_177" text-rendering="inherit" font-size="12" dy=".8em" y="819.6999930776656" x="425.4999849013984">17-AnimatedVectorDrawable</text></g><g id="node_priority3"><path id="kity_path_453" fill="#006300" stroke="none" d="M400.9999854490161,830.999993249774c0,3.866,3.134,7,7,7h6c3.866,0,7,-3.134,7,-7V824.999993249774H400.9999854490161V830.999993249774z"></path><path id="kity_path_454" fill="#00AF00" stroke="none" d="M420.9999854490161,827.999993249774c0,3.866,-3.134,7,-7,7H407.9999854490161c-3.866,0,-7,-3.134,-7,-7V824.999993249774c0,-3.866,3.134,-7,7,-7h6c3.866,0,7,3.134,7,7V827.999993249774z" opacity="0.8"></path><text id="kity_text_455" text-rendering="geometricPrecision" x="409.99998546019197" y="827.4999932609499" text-anchor="middle" font-style="italic" font-size="12" fill="white" dy="5">3</text></g></g><g id="minder_node39"><g id="node_expander36" style="cursor: pointer;" display="none"><path id="kity_path_430" fill="white" stroke="gray" d="M395.4999857060611,861.4999922774732A6,6,0,1,1,383.4999857060611,861.4999922774732A6,6,0,1,1,395.4999857060611,861.4999922774732"></path><path id="kity_path_431" fill="none" stroke="gray"></path></g><path id="node_outline37" fill="none" stroke="none" d="M400.4999849013984,848.4999922774732h203a5,5,0,0,1,5,5v16a5,5,0,0,1,-5,5h-203a5,5,0,0,1,-5,-5v-16a5,5,0,0,1,5,-5z" stroke-width="3"></path><g id="node_text37" fill="black"><text id="kity_text_179" text-rendering="inherit" font-size="12" dy=".8em" y="853.6999923177063" x="425.4999849013984">18-AnimatedStateListDrawable</text></g><g id="node_priority4"><path id="kity_path_458" fill="#B25000" stroke="none" d="M400.9999854490161,864.9999924898148c0,3.866,3.134,7,7,7h6c3.866,0,7,-3.134,7,-7V858.9999924898148H400.9999854490161V864.9999924898148z"></path><path id="kity_path_459" fill="#FF962E" stroke="none" d="M420.9999854490161,861.9999924898148c0,3.866,-3.134,7,-7,7H407.9999854490161c-3.866,0,-7,-3.134,-7,-7V858.9999924898148c0,-3.866,3.134,-7,7,-7h6c3.866,0,7,3.134,7,7V861.9999924898148z" opacity="0.8"></path><text id="kity_text_460" text-rendering="geometricPrecision" x="409.99998546019197" y="861.4999925009906" text-anchor="middle" font-style="italic" font-size="12" fill="white" dy="5">4</text></g></g><g id="minder_node40"><g id="node_expander39" style="cursor: pointer;" display="none"><path id="kity_path_439" fill="white" stroke="gray" d="M160.49999095872045,904.9999913051724A6,6,0,1,1,148.49999095872045,904.9999913051724A6,6,0,1,1,160.49999095872045,904.9999913051724"></path><path id="kity_path_440" fill="none" stroke="gray"></path></g><path id="node_outline40" fill="rgb(238, 243, 246)" stroke="rgb(115, 161, 191)" d="M164.49999035522342,890.4999913163483h160a3,3,0,0,1,3,3v23a3,3,0,0,1,-3,3h-160a3,3,0,0,1,-3,-3v-23a3,3,0,0,1,3,-3z" stroke-width="1"></path><g id="node_text40" fill="black"><text id="kity_text_185" text-rendering="inherit" font-size="14" dy=".8em" y="895.3999915158748" x="181.49999035522342">自定义Drawable</text></g><g id="kity_g_279" style="cursor: pointer;"><path id="kity_path_280" fill="none" stroke="none" d="M293.9999878965318,895.9999913163483h12a2,2,0,0,1,2,2v13a2,2,0,0,1,-2,2h-12a2,2,0,0,1,-2,-2v-13a2,2,0,0,1,2,-2z"></path><path id="kity_path_281" fill="black" stroke="none" d="M302.99998784065247,906.9999914616346H296.99998784065247V905.9999914616346h6L302.99998784065247,906.9999914616346L302.99998784065247,906.9999914616346zM302.99998784065247,904.9999914616346H296.99998784065247V903.9999914616346h6V904.9999914616346zM302.99998784065247,902.9999914616346H296.99998784065247V901.9999914616346h6V902.9999914616346zM302.49998784065247,908.9999914616346H295.99998784065247V899.9999914616346h8v7.5M302.99998784065247,909.9999914616346l2,-2V898.9999914616346H294.99998784065247v11"></path></g></g></g></g></svg>